<?xml version="1.0" encoding="UTF-8" standalone="no"?>
<!-- Created with Inkscape (http://www.inkscape.org/) -->

<svg
   xmlns:dc="http://purl.org/dc/elements/1.1/"
   xmlns:cc="http://creativecommons.org/ns#"
   xmlns:rdf="http://www.w3.org/1999/02/22-rdf-syntax-ns#"
   xmlns:svg="http://www.w3.org/2000/svg"
   xmlns="http://www.w3.org/2000/svg"
   xmlns:xlink="http://www.w3.org/1999/xlink"
   xmlns:sodipodi="http://sodipodi.sourceforge.net/DTD/sodipodi-0.dtd"
   xmlns:inkscape="http://www.inkscape.org/namespaces/inkscape"
   width="40"
   height="40"
   id="svg3083"
   version="1.1"
   inkscape:version="0.48.2 r9819"
   sodipodi:docname="widgetbg_select.svg">
  <defs
     id="defs3085">
    <linearGradient
       id="linearGradient3861">
      <stop
         id="stop3869"
         offset="0"
         style="stop-color:#c45100;stop-opacity:1;" />
      <stop
         style="stop-color:#d96f00;stop-opacity:1;"
         offset="0.02898551"
         id="stop3871" />
      <stop
         style="stop-color:#d96f00;stop-opacity:1;"
         offset="1"
         id="stop3865" />
    </linearGradient>
    <linearGradient
       inkscape:collect="always"
       xlink:href="#linearGradient3861-5"
       id="linearGradient3867-6"
       x1="19.03871"
       y1="1049.6122"
       x2="19.03871"
       y2="1015.1122"
       gradientUnits="userSpaceOnUse" />
    <linearGradient
       id="linearGradient3861-5">
      <stop
         id="stop3869-1"
         offset="0"
         style="stop-color:#c45100;stop-opacity:1;" />
      <stop
         style="stop-color:#d96f00;stop-opacity:1;"
         offset="0.02898551"
         id="stop3871-9" />
      <stop
         style="stop-color:#d96f00;stop-opacity:1;"
         offset="1"
         id="stop3865-4" />
    </linearGradient>
    <filter
       inkscape:collect="always"
       id="filter3941">
      <feGaussianBlur
         inkscape:collect="always"
         stdDeviation="0.5743401"
         id="feGaussianBlur3943" />
    </filter>
    <linearGradient
       inkscape:collect="always"
       xlink:href="#linearGradient3861-9"
       id="linearGradient3867-5"
       x1="19.03871"
       y1="1049.6122"
       x2="19.03871"
       y2="1015.1122"
       gradientUnits="userSpaceOnUse" />
    <linearGradient
       id="linearGradient3861-9">
      <stop
         style="stop-color:#ff8600;stop-opacity:1;"
         offset="0"
         id="stop3871-2" />
      <stop
         style="stop-color:#ffb218;stop-opacity:1;"
         offset="1"
         id="stop3865-3" />
    </linearGradient>
    <linearGradient
       y2="1015.1122"
       x2="19.03871"
       y1="1049.6122"
       x1="19.03871"
       gradientUnits="userSpaceOnUse"
       id="linearGradient3961"
       xlink:href="#linearGradient3861-9"
       inkscape:collect="always" />
    <linearGradient
       y2="1015.1122"
       x2="19.03871"
       y1="1049.6122"
       x1="19.03871"
       gradientUnits="userSpaceOnUse"
       id="linearGradient3961-2"
       xlink:href="#linearGradient3861-9-6"
       inkscape:collect="always" />
    <linearGradient
       id="linearGradient3861-9-6">
      <stop
         id="stop3869-8-2"
         offset="0"
         style="stop-color:#c45100;stop-opacity:1;" />
      <stop
         style="stop-color:#d96f00;stop-opacity:1;"
         offset="0.02898551"
         id="stop3871-2-1" />
      <stop
         style="stop-color:#d96f00;stop-opacity:1;"
         offset="1"
         id="stop3865-3-6" />
    </linearGradient>
    <filter
       inkscape:collect="always"
       id="filter4019">
      <feGaussianBlur
         inkscape:collect="always"
         stdDeviation="0.8"
         id="feGaussianBlur4021" />
    </filter>
    <linearGradient
       inkscape:collect="always"
       xlink:href="#linearGradient4621"
       id="linearGradient4981"
       gradientUnits="userSpaceOnUse"
       x1="5.6257443"
       y1="1014.0456"
       x2="23.393906"
       y2="1027.9352"
       gradientTransform="matrix(0.88,0,0,0.88,1.3052897,122.0125)" />
    <linearGradient
       id="linearGradient4621">
      <stop
         style="stop-color:#fff474;stop-opacity:1;"
         offset="0"
         id="stop4623" />
      <stop
         style="stop-color:#ffa715;stop-opacity:1;"
         offset="1"
         id="stop4625" />
    </linearGradient>
    <linearGradient
       inkscape:collect="always"
       xlink:href="#linearGradient4621"
       id="linearGradient4108"
       gradientUnits="userSpaceOnUse"
       gradientTransform="matrix(0,-0.59993944,0.59993944,0,-582.222,1032.5838)"
       x1="25.409895"
       y1="1009.4153"
       x2="8.2400875"
       y2="1026.6724" />
  </defs>
  <sodipodi:namedview
     id="base"
     pagecolor="#ffffff"
     bordercolor="#666666"
     borderopacity="1.0"
     inkscape:pageopacity="0.0"
     inkscape:pageshadow="2"
     inkscape:zoom="10.4"
     inkscape:cx="6.3942308"
     inkscape:cy="20"
     inkscape:document-units="px"
     inkscape:current-layer="layer1"
     showgrid="false"
     inkscape:snap-global="false"
     inkscape:snap-bbox="true"
     inkscape:bbox-paths="true"
     inkscape:bbox-nodes="true"
     inkscape:window-width="1152"
     inkscape:window-height="840"
     inkscape:window-x="0"
     inkscape:window-y="24"
     inkscape:window-maximized="1"
     showguides="false" />
  <metadata
     id="metadata3088">
    <rdf:RDF>
      <cc:Work
         rdf:about="">
        <dc:format>image/svg+xml</dc:format>
        <dc:type
           rdf:resource="http://purl.org/dc/dcmitype/StillImage" />
        <dc:title></dc:title>
      </cc:Work>
    </rdf:RDF>
  </metadata>
  <g
     inkscape:label="Layer 1"
     inkscape:groupmode="layer"
     id="layer1"
     transform="translate(0,-1012.3622)">
    <rect
       style="fill:#b1b1b1;fill-opacity:1;stroke:none"
       id="rect3091-4-1"
       width="31.978912"
       height="31.978912"
       x="4.0105438"
       y="1016.3727"
       ry="2.7839701" />
    <rect
       style="opacity:0.5;fill:none;stroke:#313131;stroke-width:2.5;stroke-miterlimit:4;stroke-opacity:1;stroke-dasharray:none;filter:url(#filter4019)"
       id="rect3091-8-0"
       width="32"
       height="32"
       x="4"
       y="1016.9935"
       ry="3.8252308" />
    <rect
       style="fill:#584646;fill-opacity:1;stroke:none;stroke-opacity:1;stroke-width:2.50000000000000000;stroke-miterlimit:4;stroke-dasharray:none;opacity:0.68449198"
       id="rect3091"
       width="32"
       height="32"
       x="4"
       y="1016.3622"
       ry="3.8252308" />
    <rect
       style="fill:#add3e3;fill-opacity:1;stroke:none;filter:url(#filter3941)"
       id="rect3091-4"
       width="28.717005"
       height="28.717005"
       x="5.6414981"
       y="1018.0037"
       ry="2.5" />
    <path
       style="fill:url(#linearGradient4108);fill-opacity:1;stroke:#000000;stroke-width:0.68174933999999998;stroke-linejoin:miter;stroke-opacity:1"
       d="m 20.346288,1017.8611 0.03125,1.3125 1.1875,-0.094 c 0.058,0.8457 0.18605,1.7071 0.40625,2.5313 l -1.15625,0.3125 0.40625,1.25 1.125,-0.4063 c 0.2936,0.797 0.6725,1.5731 1.125,2.3125 l -1.03125,0.625 0.75,1.0938 0.9375,-0.75 c 0.3783,0.5071 0.82075,1.0081 1.28125,1.4687 0.1552,0.1548 0.30845,0.3233 0.46875,0.4688 l -0.84375,0.8437 1.03125,0.8438 0.75,-0.9375 c 0.6961,0.5256 1.4231,0.9742 2.1875,1.3437 l -0.5625,1.0625 1.21875,0.5313 0.4375,-1.125 c 0.8089,0.3038 1.62505,0.5168 2.46875,0.6562 l -0.1875,1.1875 1.3125,0.1563 0.09375,-1.1875 c 0.742581,0.054 1.478628,0.039 2.21875,-0.031 l 0,-11.875 -1.28125,-1.2812 -1.53125,-1.5313 -11.5625,0 c -0.0501,0.4166 -0.08424,0.8289 -0.09375,1.25 l -1.1875,-0.031 z"
       id="path2815"
       inkscape:connector-curvature="0" />
    <rect
       style="fill:none;fill-opacity:1;stroke:url(#linearGradient3961);stroke-width:2.50000000000000000;stroke-miterlimit:4;stroke-opacity:1;stroke-dasharray:none"
       id="rect3091-8"
       width="32"
       height="32"
       x="4"
       y="1016.3622"
       ry="3.8252308" />
    <g
       id="g4204"
       transform="matrix(1.6274361,0,0,1.6274361,5.1745969,-655.77009)">
      <path
         d="m 63.961441,24.79303 c 0,4.122938 -3.342302,7.46524 -7.46524,7.46524 -4.122939,0 -7.465241,-3.342302 -7.465241,-7.46524 0,-4.122939 3.342302,-7.465241 7.465241,-7.465241 4.122938,0 7.46524,3.342302 7.46524,7.465241 z"
         sodipodi:ry="7.4652405"
         sodipodi:rx="7.4652405"
         sodipodi:cy="24.79303"
         sodipodi:cx="56.496201"
         id="path4130-7"
         style="fill:#ffffff;fill-opacity:1;stroke:none"
         sodipodi:type="arc"
         transform="matrix(0.30232611,0,0,0.30232611,-5.5542834,1034.0962)" />
      <path
         d="m 63.961441,24.79303 c 0,4.122938 -3.342302,7.46524 -7.46524,7.46524 -4.122939,0 -7.465241,-3.342302 -7.465241,-7.46524 0,-4.122939 3.342302,-7.465241 7.465241,-7.465241 4.122938,0 7.46524,3.342302 7.46524,7.465241 z"
         sodipodi:ry="7.4652405"
         sodipodi:rx="7.4652405"
         sodipodi:cy="24.79303"
         sodipodi:cx="56.496201"
         id="path4130-73"
         style="fill:#ffffff;fill-opacity:1;stroke:none"
         sodipodi:type="arc"
         transform="matrix(0.30232611,0,0,0.30232611,-2.1451188,1035.8096)" />
      <path
         d="m 63.961441,24.79303 c 0,4.122938 -3.342302,7.46524 -7.46524,7.46524 -4.122939,0 -7.465241,-3.342302 -7.465241,-7.46524 0,-4.122939 3.342302,-7.465241 7.465241,-7.465241 4.122938,0 7.46524,3.342302 7.46524,7.465241 z"
         sodipodi:ry="7.4652405"
         sodipodi:rx="7.4652405"
         sodipodi:cy="24.79303"
         sodipodi:cx="56.496201"
         id="path4130-6"
         style="fill:#ffffff;fill-opacity:1;stroke:none"
         sodipodi:type="arc"
         transform="matrix(0.30232611,0,0,0.30232611,-8.052164,1035.8096)" />
      <rect
         y="1042.1071"
         x="8.7494793"
         height="3.4550641"
         width="6.631494"
         id="rect4178"
         style="fill:#ffffff;fill-opacity:1;stroke:none" />
    </g>
  </g>
</svg>
