<?xml version="1.0" encoding="UTF-8" standalone="no"?>
<!-- Created with Inkscape (http://www.inkscape.org/) -->

<svg
   xmlns:dc="http://purl.org/dc/elements/1.1/"
   xmlns:cc="http://creativecommons.org/ns#"
   xmlns:rdf="http://www.w3.org/1999/02/22-rdf-syntax-ns#"
   xmlns:svg="http://www.w3.org/2000/svg"
   xmlns="http://www.w3.org/2000/svg"
   xmlns:sodipodi="http://sodipodi.sourceforge.net/DTD/sodipodi-0.dtd"
   xmlns:inkscape="http://www.inkscape.org/namespaces/inkscape"
   width="200"
   height="150"
   id="svg2"
   version="1.1"
   inkscape:version="0.47 r22583"
   sodipodi:docname="splash.svg"
   inkscape:export-filename="/home/william/Dev/Workspace/Space game/svg/splash.png"
   inkscape:export-xdpi="90"
   inkscape:export-ydpi="90">
  <sodipodi:namedview
     id="base"
     pagecolor="#000000"
     bordercolor="#666666"
     borderopacity="1.0"
     inkscape:pageopacity="0"
     inkscape:pageshadow="2"
     inkscape:zoom="1.4"
     inkscape:cx="106.29027"
     inkscape:cy="74.873638"
     inkscape:document-units="px"
     inkscape:current-layer="layer1"
     showgrid="false"
     inkscape:window-width="1024"
     inkscape:window-height="549"
     inkscape:window-x="0"
     inkscape:window-y="24"
     inkscape:window-maximized="1" />
  <defs
     id="defs4">
    <inkscape:perspective
       id="perspective10"
       inkscape:persp3d-origin="372.04724 : 350.78739 : 1"
       inkscape:vp_z="744.09448 : 526.18109 : 1"
       inkscape:vp_y="0 : 1000 : 0"
       inkscape:vp_x="0 : 526.18109 : 1"
       sodipodi:type="inkscape:persp3d" />
    <filter
       inkscape:collect="always"
       id="filter3676"
       x="-0.1949861"
       width="1.3899722"
       y="-0.58209084"
       height="2.1641817">
      <feGaussianBlur
         inkscape:collect="always"
         stdDeviation="11.78041"
         id="feGaussianBlur3678" />
    </filter>
  </defs>
  <metadata
     id="metadata7">
    <rdf:RDF>
      <cc:Work
         rdf:about="">
        <dc:format>image/svg+xml</dc:format>
        <dc:type
           rdf:resource="http://purl.org/dc/dcmitype/StillImage" />
        <dc:title></dc:title>
      </cc:Work>
    </rdf:RDF>
  </metadata>
  <g
     transform="translate(-83.745964,-624.66875)"
     id="layer1"
     inkscape:groupmode="layer"
     inkscape:label="Layer 1">
    <g
       id="flowRoot3590"
       style="font-size:32px;font-style:normal;font-variant:normal;font-weight:normal;font-stretch:normal;text-align:center;text-anchor:middle;fill:#ffffff;fill-opacity:1;stroke:none;font-family:Bitstream Charter;-inkscape-font-specification:Bitstream Charter"
       transform="matrix(1.2596006,0,0,1.1884552,-412.4554,430.99166)">
      <path
         id="path3601"
         style="fill:#ffffff;fill-opacity:1;font-family:Arial;-inkscape-font-specification:Arial"
         d="m 126.09078,197.7064 c 0,0 -0.24983,-3.21302 -0.24983,-3.21302 0,0 6.68954,-9.01777 6.68954,-9.01777 0,0 0.26136,3.63453 0.26136,3.63453 0,0 -5.37159,6.88217 -5.37159,6.88217 0,0 6.28674,5.84436 6.28674,5.84436 0,0 0.25465,3.54116 0.25465,3.54116 0,0 -7.87087,-7.67143 -7.87087,-7.67143" />
      <path
         id="path3603"
         style="fill:#ffffff;fill-opacity:1;font-family:Arial;-inkscape-font-specification:Arial"
         d="m 136.69237,209.82162 c 0,0 -2.08793,-29.84301 -2.08793,-29.84301 0,0 1.59451,-0.29258 1.59451,-0.29258 0,0 2.07013,30.13653 2.07013,30.13653 0,0 -1.57671,-9.4e-4 -1.57671,-9.4e-4" />
      <path
         id="path3605"
         style="fill:#ffffff;fill-opacity:1;font-family:Arial;-inkscape-font-specification:Arial"
         d="m 141.09817,209.82425 c 0,0 -2.03632,-30.66352 -2.03632,-30.66352 0,0 1.7277,-0.31702 1.7277,-0.31702 0,0 8.55122,24.18933 8.55122,24.18933 0,0 -1.51435,-25.48051 -1.51435,-25.48051 0,0 1.78895,-0.32826 1.78895,-0.32826 0,0 1.89149,32.60619 1.89149,32.60619 0,0 -1.88403,-10e-4 -1.88403,-10e-4 0,0 -8.50695,-24.20382 -8.50695,-24.20382 0,0 1.57596,24.19969 1.57596,24.19969 0,0 -1.59367,-9.5e-4 -1.59367,-9.5e-4" />
      <path
         id="path3607"
         style="fill:#ffffff;fill-opacity:1;font-family:Arial;-inkscape-font-specification:Arial"
         d="m 153.45527,199.39314 c 0,0 1.8088,-0.46573 1.8088,-0.46573 0.17762,1.65009 0.45357,3.00003 0.82855,4.0533 0.38161,1.0399 0.93051,1.88183 1.64957,2.52742 0.72284,0.63458 1.52054,0.94579 2.39575,0.93046 0.78408,-0.0137 1.4692,-0.27946 2.0536,-0.79995 0.58865,-0.52428 1.01228,-1.23464 1.26855,-2.13126 0.26401,-0.91663 0.37104,-1.90946 0.3201,-2.97665 -0.0518,-1.08473 -0.24407,-2.02088 -0.57629,-2.80598 -0.3324,-0.7994 -0.84716,-1.45026 -1.54149,-1.95131 -0.44349,-0.32835 -1.40616,-0.81052 -2.87371,-1.44076 -1.4479,-0.6368 -2.45974,-1.25641 -3.04838,-1.8632 -0.75809,-0.77077 -1.34411,-1.7529 -1.76112,-2.94841 -0.41038,-1.20925 -0.65801,-2.58245 -0.7436,-4.12406 -0.0943,-1.69855 0.0285,-3.31873 0.37055,-4.86526 0.34357,-1.5729 0.90736,-2.82529 1.69564,-3.75599 0.79648,-0.94031 1.71695,-1.51112 2.764,-1.70669 1.167,-0.21789 2.22784,0.0165 3.17735,0.70951 0.96405,0.68129 1.73875,1.81338 2.3191,3.39506 0.58187,1.58593 0.94118,3.42937 1.07646,5.52259 0,0 -2.06565,0.60838 -2.06565,0.60838 -0.21836,-2.21976 -0.67595,-3.85643 -1.36982,-4.90218 -0.68319,-1.0417 -1.63387,-1.46025 -2.84267,-1.26138 -1.24239,0.20446 -2.11205,0.862 -2.61845,1.96827 -0.49651,1.08126 -0.70528,2.32386 -0.62925,3.73157 0.0659,1.2196 0.3144,2.19716 0.74667,2.93613 0.42668,0.74205 1.47967,1.44023 3.17888,2.10104 1.734,0.65539 2.94772,1.27205 3.62213,1.84415 0.98854,0.85116 1.74732,1.98607 2.27102,3.40193 0.52422,1.40338 0.83017,3.04736 0.9167,4.92512 0.0855,1.85632 -0.085,3.61231 -0.50875,5.26241 -0.42125,1.62169 -1.07242,2.883 -1.94865,3.7858 -0.86019,0.87758 -1.84656,1.31077 -2.95625,1.30675 -1.38798,-0.005 -2.55996,-0.44281 -3.52506,-1.30785 -0.95021,-0.85775 -1.72634,-2.14053 -2.3331,-3.85009 -0.59926,-1.71976 -0.97245,-3.66787 -1.12118,-5.85314" />
      <path
         id="path3609"
         style="fill:#ffffff;fill-opacity:1;font-family:Arial;-inkscape-font-specification:Arial"
         d="m 169.38698,209.84113 c 0,0 -1.56711,-35.95717 -1.56711,-35.95717 0,0 13.38327,-2.45568 13.38327,-2.45568 0,0 0.15381,4.65748 0.15381,4.65748 0,0 -11.03365,1.77701 -11.03365,1.77701 0,0 0.47137,11.2905 0.47137,11.2905 0,0 10.22457,-1.06064 10.22457,-1.06064 0,0 0.15107,4.49541 0.15107,4.49541 0,0 -10.19728,0.83737 -10.19728,0.83737 0,0 0.51068,12.23182 0.51068,12.23182 0,0 11.29234,-0.23076 11.29234,-0.23076 0,0 0.14446,4.42274 0.14446,4.42274 0,0 -13.53353,-0.008 -13.53353,-0.008" />
      <path
         id="path3611"
         style="fill:#ffffff;fill-opacity:1;font-family:Arial;-inkscape-font-specification:Arial"
         d="m 186.59283,209.8514 c 0,0 -1.16416,-39.19846 -1.16416,-39.19846 0,0 9.53651,-1.74984 9.53651,-1.74984 2.02113,-0.37081 3.58993,-0.26621 4.68555,0.32253 1.10442,0.57406 2.00643,1.79301 2.70049,3.65695 0.69587,1.86901 1.06323,3.99748 1.1006,6.37497 0.0479,3.05219 -0.45892,5.67247 -1.51024,7.85094 -1.03812,2.15108 -2.65126,3.58466 -4.81615,4.30991 0.80306,0.62988 1.41949,1.26848 1.84655,1.91427 0.91165,1.40614 1.7877,3.19028 2.62659,5.35226 0,0 4.26918,11.17797 4.26918,11.17797 0,0 -3.90154,-0.002 -3.90154,-0.002 0,0 -3.1762,-8.4202 -3.1762,-8.4202 -0.91948,-2.40887 -1.67108,-4.24307 -2.25614,-5.50668 -0.58337,-1.25992 -1.10121,-2.13182 -1.55367,-2.61729 -0.44111,-0.48467 -0.88715,-0.81051 -1.33787,-0.97814 -0.32901,-0.10292 -0.86189,-0.12496 -1.59563,-0.0666 0,0 -3.24227,0.25772 -3.24227,0.25772 0,0 0.47692,17.32367 0.47692,17.32367 0,0 -2.68852,-0.002 -2.68852,-0.002 m 2.08636,-21.8716 c 0,0 6.10597,-0.61414 6.10597,-0.61414 1.34303,-0.13506 2.39932,-0.4963 3.16099,-1.08585 0.76715,-0.61307 1.34592,-1.51585 1.7334,-2.70961 0.38921,-1.21943 0.57213,-2.5161 0.54711,-3.88721 -0.0368,-2.01368 -0.47022,-3.61426 -1.29713,-4.79251 -0.81233,-1.17394 -2.06385,-1.62118 -3.73859,-1.34911 0,0 -6.87847,1.11758 -6.87847,1.11758 0,0 0.36672,13.32085 0.36672,13.32085" />
      <path
         id="path3613"
         style="fill:#ffffff;fill-opacity:1;font-family:Arial;-inkscape-font-specification:Arial"
         d="m 214.67683,209.86816 c 0,0 -0.27518,-39.10439 -0.27518,-39.10439 0,0 -8.4125,1.35487 -8.4125,1.35487 0,0 -0.0712,-5.22524 -0.0712,-5.22524 0,0 21.40725,-3.92799 21.40725,-3.92799 0,0 -0.0175,5.71979 -0.0175,5.71979 0,0 -9.35398,1.5065 -9.35398,1.5065 0,0 0.1689,39.67851 0.1689,39.67851 0,0 -3.44579,-0.002 -3.44579,-0.002" />
      <path
         id="path3615"
         style="fill:#ffffff;fill-opacity:1;font-family:Arial;-inkscape-font-specification:Arial"
         d="m 119.02435,252.5403 c 0,0 -1.8499,-21.20788 -1.8499,-21.20788 0,0 -2.86975,-0.42862 -2.86975,-0.42862 0,0 -0.25416,-2.83816 -0.25416,-2.83816 0,0 7.11081,0.92139 7.11081,0.92139 0,0 0.24954,2.97813 0.24954,2.97813 0,0 -3.05083,-0.45566 -3.05083,-0.45566 0,0 1.84399,21.37552 1.84399,21.37552 0,0 -1.1797,-0.34472 -1.1797,-0.34472" />
      <path
         id="path3617"
         style="fill:#ffffff;fill-opacity:1;font-family:Arial;-inkscape-font-specification:Arial"
         d="m 124.74046,254.21059 c 0,0 -2.06641,-25.02755 -2.06641,-25.02755 0,0 1.28318,0.16627 1.28318,0.16627 0,0 2.05716,25.23354 2.05716,25.23354 0,0 -1.27393,-0.37226 -1.27393,-0.37226" />
      <path
         id="path3619"
         style="fill:#ffffff;fill-opacity:1;font-family:Arial;-inkscape-font-specification:Arial"
         d="m 130.89243,256.00825 c 0,0 -1.77489,-22.89204 -1.77489,-22.89204 0,0 -3.3576,-0.50149 -3.3576,-0.50149 0,0 -0.2459,-3.06369 -0.2459,-3.06369 0,0 8.3431,1.08107 8.3431,1.08107 0,0 0.23717,3.22742 0.23717,3.22742 0,0 -3.58639,-0.53565 -3.58639,-0.53565 0,0 1.76395,23.08746 1.76395,23.08746 0,0 -1.37944,-0.40308 -1.37944,-0.40308" />
      <path
         id="path3621"
         style="fill:#ffffff;fill-opacity:1;font-family:Arial;-inkscape-font-specification:Arial"
         d="m 137.27978,257.87468 c 0,0 -1.95571,-27.05251 -1.95571,-27.05251 0,0 1.50955,0.1956 1.50955,0.1956 0,0 1.71525,24.13629 1.71525,24.13629 0,0 5.81233,1.5902 5.81233,1.5902 0,0 0.21628,3.26287 0.21628,3.26287 0,0 -7.2977,-2.13245 -7.2977,-2.13245" />
      <path
         id="path3623"
         style="fill:#ffffff;fill-opacity:1;font-family:Arial;-inkscape-font-specification:Arial"
         d="m 146.56361,260.58749 c 0,0 -1.84554,-28.54808 -1.84554,-28.54808 0,0 9.655,1.25105 9.655,1.25105 0,0 0.206,3.62862 0.206,3.62862 0,0 -7.9516,-1.18763 -7.9516,-1.18763 0,0 0.5645,8.9222 0.5645,8.9222 0,0 7.39204,1.47802 7.39204,1.47802 0,0 0.20145,3.5216 0.20145,3.5216 0,0 -7.37943,-1.61643 -7.37943,-1.61643 0,0 0.61425,9.70851 0.61425,9.70851 0,0 8.1864,2.23972 8.1864,2.23972 0,0 0.1965,3.47762 0.1965,3.47762 0,0 -9.83957,-2.8752 -9.83957,-2.8752" />
      <path
         id="path3625"
         style="fill:#ffffff;fill-opacity:1;font-family:Arial;-inkscape-font-specification:Arial"
         d="m 164.78903,265.9131 c 0,0 -1.55909,-31.475 -1.55909,-31.475 0,0 2.07461,0.26882 2.07461,0.26882 0,0 0.63449,13.26364 0.63449,13.26364 0,0 8.53484,1.68749 8.53484,1.68749 0,0 -0.56435,-13.83614 -0.56435,-13.83614 0,0 2.31484,0.29995 2.31484,0.29995 0,0 1.30335,33.51358 1.30335,33.51358 0,0 -2.266,-0.66214 -2.266,-0.66214 0,0 -0.62803,-15.39728 -0.62803,-15.39728 0,0 -8.51487,-1.84724 -8.51487,-1.84724 0,0 0.707,14.77949 0.707,14.77949 0,0 -2.03679,-0.59517 -2.03679,-0.59517" />
      <path
         id="path3627"
         style="fill:#ffffff;fill-opacity:1;font-family:Arial;-inkscape-font-specification:Arial"
         d="m 181.47631,270.78926 c 0,0 -1.21475,-34.14428 -1.21475,-34.14428 0,0 14.21596,1.84205 14.21596,1.84205 0,0 0.10527,4.40691 0.10527,4.40691 0,0 -11.71694,-1.75002 -11.71694,-1.75002 0,0 0.35951,10.71452 0.35951,10.71452 0,0 10.85065,2.16956 10.85065,2.16956 0,0 0.10439,4.25456 0.10439,4.25456 0,0 -10.819,-2.36986 -10.819,-2.36986 0,0 0.3895,11.6082 0.3895,11.6082 0,0 11.97222,3.27549 11.97222,3.27549 0,0 0.0983,4.18461 0.0983,4.18461 0,0 -14.3451,-4.19174 -14.3451,-4.19174" />
      <path
         id="path3629"
         style="fill:#ffffff;fill-opacity:1;font-family:Arial;-inkscape-font-specification:Arial"
         d="m 199.71351,276.11831 c 0,0 -0.74808,-37.04976 -0.74808,-37.04976 0,0 10.12774,1.31231 10.12774,1.31231 2.14627,0.27814 3.80731,0.86128 4.96095,1.75117 1.16313,0.87884 2.1038,2.29861 2.81615,4.25765 0.7142,1.96437 1.07712,4.06994 1.08731,6.30652 0.013,2.87129 -0.55639,5.16686 -1.69729,6.88061 -1.1266,1.69225 -2.85365,2.5352 -5.15664,2.54462 0.84318,0.83783 1.48848,1.62611 1.93301,2.36256 0.94862,1.5979 1.85484,3.53858 2.717,5.82138 0,0 4.38536,11.78143 4.38536,11.78143 0,0 -4.13403,-1.20799 -4.13403,-1.20799 0,0 -3.26147,-8.86272 -3.26147,-8.86272 -0.94452,-2.53884 -1.71826,-4.48793 -2.3226,-5.85149 -0.6026,-1.3596 -1.14054,-2.33575 -1.61401,-2.93003 -0.46144,-0.59002 -0.93008,-1.0329 -1.40563,-1.32915 -0.34739,-0.19804 -0.91182,-0.38347 -1.6901,-0.55577 0,0 -3.4392,-0.76133 -3.4392,-0.76133 0,0 0.29084,16.36258 0.29084,16.36258 0,0 -2.84931,-0.83259 -2.84931,-0.83259 m 2.48209,-19.82701 c 0,0 6.47829,1.31336 6.47829,1.31336 1.42485,0.28889 2.54863,0.27743 3.36303,-0.0388 0.82048,-0.33658 1.44493,-1.00253 1.87029,-1.99995 0.42749,-1.02094 0.63735,-2.1779 0.62781,-3.46886 -0.014,-1.89596 -0.45355,-3.52798 -1.31517,-4.88644 -0.84624,-1.34992 -2.16685,-2.15555 -3.94486,-2.41892 0,0 -7.30301,-1.08161 -7.30301,-1.08161 0,0 0.22362,12.58125 0.22362,12.58125" />
      <path
         id="path3631"
         style="fill:#ffffff;fill-opacity:1;font-family:Arial;-inkscape-font-specification:Arial"
         d="m 223.43896,283.05107 c 0,0 0.001,-40.81116 0.001,-40.81116 0,0 21.03799,2.72602 21.03799,2.72602 0,0 -0.0939,5.36626 -0.0939,5.36626 0,0 -17.35573,-2.59221 -17.35573,-2.59221 0,0 -0.0389,12.86907 -0.0389,12.86907 0,0 15.99666,3.19849 15.99666,3.19849 0,0 -0.0851,5.14714 -0.0851,5.14714 0,0 -15.92628,-3.48858 -15.92628,-3.48858 0,0 -0.0419,13.86908 -0.0419,13.86908 0,0 17.57046,4.80711 17.57046,4.80711 0,0 -0.0913,5.03739 -0.0913,5.03739 0,0 -20.97348,-6.12861 -20.97348,-6.12861" />
      <path
         id="path3633"
         style="fill:#ffffff;fill-opacity:1;font-family:Arial;-inkscape-font-specification:Arial"
         d="m 272.5985,276.48774 c 0,0 -23.3029,7.37856 -23.3029,7.37856 0,0 0.11911,-5.35929 0.11911,-5.35929 0,0 18.18491,-5.84136 18.18491,-5.84136 0,0 -17.75337,-13.57487 -17.75337,-13.57487 0,0 0.12424,-5.59016 0.12424,-5.59016 0,0 22.86054,17.44517 22.86054,17.44517 0,0 -0.23253,5.54195 -0.23253,5.54195" />
    </g>
    <path
       id="path3733"
       d="m -172.73608,727.09305 -6.06091,-67.68022 167.685317,-31.31472 -6.06092,144.45181 -155.563487,-45.45687 z"
       style="fill:none;stroke:#000000;stroke-width:1px;stroke-linecap:butt;stroke-linejoin:miter;stroke-opacity:1" />
    <path
       sodipodi:type="arc"
       style="opacity:0.42152465000000000;color:#000000;fill:#ffffff;fill-opacity:1;fill-rule:nonzero;stroke:none;stroke-width:5;marker:none;visibility:visible;display:inline;overflow:visible;enable-background:accumulate;filter:url(#filter3676)"
       id="path3634"
       sodipodi:cx="106.07143"
       sodipodi:cy="133.57143"
       sodipodi:rx="72.5"
       sodipodi:ry="24.285715"
       d="m 178.57143,133.57143 a 72.5,24.285715 0 1 1 -145.000004,0 72.5,24.285715 0 1 1 145.000004,0 z"
       transform="matrix(0.74294903,0,0,0.52017153,104.9403,676.61726)" />
    <flowRoot
       xml:space="preserve"
       id="flowRoot3603"
       style="font-size:10px;font-style:normal;font-variant:normal;font-weight:normal;font-stretch:normal;fill:#ffffff;fill-opacity:1;stroke:none;font-family:Bitstream Charter;-inkscape-font-specification:Aurulent Sans;stroke-opacity:1;stroke-width:0.40992581000000000;stroke-miterlimit:4;stroke-dasharray:none"
       transform="matrix(2.4394658,0,0,2.4394658,-29.397024,493.33427)"><flowRegion
         id="flowRegion3605"><rect
           id="rect3607"
           width="127.14286"
           height="50"
           x="65.714287"
           y="92.14286"
           style="fill:#ffffff;fill-opacity:1;font-weight:normal;-inkscape-font-specification:Aurulent Sans;font-style:normal;stroke:none;stroke-opacity:1;stroke-width:0.40992581000000000;stroke-miterlimit:4;stroke-dasharray:none" /></flowRegion><flowPara
         id="flowPara3609"
         style="font-style:normal;font-variant:normal;font-weight:normal;font-stretch:normal;fill:#ffffff;fill-opacity:1;font-family:Aurulent Sans;-inkscape-font-specification:Aurulent Sans;stroke:none;stroke-opacity:1;stroke-width:0.40992581000000000;stroke-miterlimit:4;stroke-dasharray:none">LOADING</flowPara></flowRoot>  </g>
</svg>
