<?xml version="1.0" encoding="UTF-8" standalone="no"?>
<!-- Created with Inkscape (http://www.inkscape.org/) -->

<svg
   xmlns:dc="http://purl.org/dc/elements/1.1/"
   xmlns:cc="http://creativecommons.org/ns#"
   xmlns:rdf="http://www.w3.org/1999/02/22-rdf-syntax-ns#"
   xmlns:svg="http://www.w3.org/2000/svg"
   xmlns="http://www.w3.org/2000/svg"
   xmlns:sodipodi="http://sodipodi.sourceforge.net/DTD/sodipodi-0.dtd"
   xmlns:inkscape="http://www.inkscape.org/namespaces/inkscape"
   width="48"
   height="48"
   id="svg2"
   version="1.1"
   inkscape:version="0.48.2 r9819"
   sodipodi:docname="blockvortexbg.svg"
   inkscape:export-filename="/home/william/Dev/wksp/spacegame/spacegame/svg/block/blockvortexbg.png"
   inkscape:export-xdpi="90"
   inkscape:export-ydpi="90">
  <defs
     id="defs4">
    <filter
       inkscape:collect="always"
       id="filter3786"
       x="-0.33191489"
       width="1.6638298"
       y="-0.33191489"
       height="1.6638298">
      <feGaussianBlur
         inkscape:collect="always"
         stdDeviation="3.9760638"
         id="feGaussianBlur3788" />
    </filter>
    <filter
       color-interpolation-filters="sRGB"
       inkscape:collect="always"
       id="filter3786-8"
       x="-0.3319149"
       width="1.6638298"
       y="-0.3319149"
       height="1.6638298">
      <feGaussianBlur
         inkscape:collect="always"
         stdDeviation="3.9760638"
         id="feGaussianBlur3788-0" />
    </filter>
    <filter
       color-interpolation-filters="sRGB"
       inkscape:collect="always"
       id="filter3786-1"
       x="-0.3319149"
       width="1.6638298"
       y="-0.3319149"
       height="1.6638298">
      <feGaussianBlur
         inkscape:collect="always"
         stdDeviation="3.9760638"
         id="feGaussianBlur3788-02" />
    </filter>
    <filter
       color-interpolation-filters="sRGB"
       inkscape:collect="always"
       id="filter3786-6"
       x="-0.3319149"
       width="1.6638298"
       y="-0.3319149"
       height="1.6638298">
      <feGaussianBlur
         inkscape:collect="always"
         stdDeviation="3.9760638"
         id="feGaussianBlur3788-3" />
    </filter>
    <filter
       inkscape:collect="always"
       id="filter3879"
       x="-0.56808511"
       width="2.1361702"
       y="-0.56808511"
       height="2.1361702">
      <feGaussianBlur
         inkscape:collect="always"
         stdDeviation="6.8051862"
         id="feGaussianBlur3881" />
    </filter>
    <filter
       color-interpolation-filters="sRGB"
       inkscape:collect="always"
       id="filter3879-7"
       x="-0.56808513"
       width="2.1361701"
       y="-0.56808513"
       height="2.1361701">
      <feGaussianBlur
         inkscape:collect="always"
         stdDeviation="6.8051862"
         id="feGaussianBlur3881-3" />
    </filter>
    <filter
       color-interpolation-filters="sRGB"
       inkscape:collect="always"
       id="filter3879-2"
       x="-0.56808513"
       width="2.1361701"
       y="-0.56808513"
       height="2.1361701">
      <feGaussianBlur
         inkscape:collect="always"
         stdDeviation="6.8051862"
         id="feGaussianBlur3881-30" />
    </filter>
    <filter
       color-interpolation-filters="sRGB"
       inkscape:collect="always"
       id="filter3879-77"
       x="-0.56808513"
       width="2.1361701"
       y="-0.56808513"
       height="2.1361701">
      <feGaussianBlur
         inkscape:collect="always"
         stdDeviation="6.8051862"
         id="feGaussianBlur3881-6" />
    </filter>
    <filter
       color-interpolation-filters="sRGB"
       inkscape:collect="always"
       id="filter3879-1"
       x="-0.56808513"
       width="2.1361701"
       y="-0.56808513"
       height="2.1361701">
      <feGaussianBlur
         inkscape:collect="always"
         stdDeviation="6.8051862"
         id="feGaussianBlur3881-1" />
    </filter>
    <filter
       inkscape:collect="always"
       id="filter3994"
       x="-0.84255319"
       width="2.6851064"
       y="-0.84255319"
       height="2.6851064">
      <feGaussianBlur
         inkscape:collect="always"
         stdDeviation="10.093085"
         id="feGaussianBlur3996" />
    </filter>
    <filter
       color-interpolation-filters="sRGB"
       inkscape:collect="always"
       id="filter3879-2-9"
       x="-0.56808513"
       width="2.1361701"
       y="-0.56808513"
       height="2.1361701">
      <feGaussianBlur
         inkscape:collect="always"
         stdDeviation="6.8051862"
         id="feGaussianBlur3881-30-5" />
    </filter>
  </defs>
  <sodipodi:namedview
     id="base"
     pagecolor="#ffffff"
     bordercolor="#666666"
     borderopacity="1.0"
     inkscape:pageopacity="0"
     inkscape:pageshadow="2"
     inkscape:zoom="5.6"
     inkscape:cx="10.924532"
     inkscape:cy="23.72563"
     inkscape:document-units="px"
     inkscape:current-layer="layer1"
     showgrid="false"
     inkscape:window-width="1020"
     inkscape:window-height="397"
     inkscape:window-x="0"
     inkscape:window-y="309"
     inkscape:window-maximized="0" />
  <metadata
     id="metadata7">
    <rdf:RDF>
      <cc:Work
         rdf:about="">
        <dc:format>image/svg+xml</dc:format>
        <dc:type
           rdf:resource="http://purl.org/dc/dcmitype/StillImage" />
        <dc:title></dc:title>
      </cc:Work>
    </rdf:RDF>
  </metadata>
  <g
     inkscape:label="Layer 1"
     inkscape:groupmode="layer"
     id="layer1"
     transform="translate(0,-1004.3622)">
    <path
       sodipodi:type="arc"
       style="fill:#ffffff;fill-opacity:1;stroke:none;stroke-opacity:1;filter:url(#filter3786)"
       id="path3004"
       sodipodi:cx="4.7321429"
       sodipodi:cy="38.089287"
       sodipodi:rx="14.375"
       sodipodi:ry="14.375"
       d="m 19.107143,38.089287 a 14.375,14.375 0 1 1 -28.7500001,0 14.375,14.375 0 1 1 28.7500001,0 z"
       transform="translate(0,1004.3622)" />
    <path
       transform="translate(23.125,1009.8086)"
       sodipodi:type="arc"
       style="fill:#ffffff;fill-opacity:1;stroke:none;filter:url(#filter3786-8)"
       id="path3004-8"
       sodipodi:cx="4.7321429"
       sodipodi:cy="38.089287"
       sodipodi:rx="14.375"
       sodipodi:ry="14.375"
       d="m 19.107143,38.089287 a 14.375,14.375 0 1 1 -28.7500001,0 14.375,14.375 0 1 1 28.7500001,0 z" />
    <path
       transform="translate(44.553571,1002.8443)"
       sodipodi:type="arc"
       style="fill:#ffffff;fill-opacity:1;stroke:none;filter:url(#filter3786-1)"
       id="path3004-2"
       sodipodi:cx="4.7321429"
       sodipodi:cy="38.089287"
       sodipodi:rx="14.375"
       sodipodi:ry="14.375"
       d="m 19.107143,38.089287 a 14.375,14.375 0 1 1 -28.7500001,0 14.375,14.375 0 1 1 28.7500001,0 z" />
    <path
       transform="translate(47.232143,1022.3086)"
       sodipodi:type="arc"
       style="fill:#ffffff;fill-opacity:1;stroke:none;filter:url(#filter3786-6)"
       id="path3004-6"
       sodipodi:cx="4.7321429"
       sodipodi:cy="38.089287"
       sodipodi:rx="14.375"
       sodipodi:ry="14.375"
       d="m 19.107143,38.089287 a 14.375,14.375 0 1 1 -28.7500001,0 14.375,14.375 0 1 1 28.7500001,0 z" />
    <path
       transform="matrix(0.5726313,0,0,0.5726313,9.6116554,999.30108)"
       sodipodi:type="arc"
       style="fill:#cfcdcd;fill-opacity:1;stroke:none;filter:url(#filter3879)"
       id="path3004-1"
       sodipodi:cx="4.7321429"
       sodipodi:cy="38.089287"
       sodipodi:rx="14.375"
       sodipodi:ry="14.375"
       d="m 19.107143,38.089287 a 14.375,14.375 0 1 1 -28.7500001,0 14.375,14.375 0 1 1 28.7500001,0 z" />
    <path
       transform="matrix(0.5726313,0,0,0.5726313,24.611655,1004.4797)"
       sodipodi:type="arc"
       style="fill:#cfcdcd;fill-opacity:1;stroke:none;filter:url(#filter3879-7)"
       id="path3004-1-8"
       sodipodi:cx="4.7321429"
       sodipodi:cy="38.089287"
       sodipodi:rx="14.375"
       sodipodi:ry="14.375"
       d="m 19.107143,38.089287 a 14.375,14.375 0 1 1 -28.7500001,0 14.375,14.375 0 1 1 28.7500001,0 z" />
    <path
       transform="matrix(0.5726313,0,0,0.5726313,40.14737,997.15822)"
       sodipodi:type="arc"
       style="fill:#cfcdcd;fill-opacity:1;stroke:none;filter:url(#filter3879-2)"
       id="path3004-1-7"
       sodipodi:cx="4.7321429"
       sodipodi:cy="38.089287"
       sodipodi:rx="14.375"
       sodipodi:ry="14.375"
       d="m 19.107143,38.089287 a 14.375,14.375 0 1 1 -28.7500001,0 14.375,14.375 0 1 1 28.7500001,0 z" />
    <path
       transform="matrix(0.5726313,0,0,0.5726313,20.325941,1016.4439)"
       sodipodi:type="arc"
       style="fill:#cfcdcd;fill-opacity:1;stroke:none;filter:url(#filter3879-77)"
       id="path3004-1-9"
       sodipodi:cx="4.7321429"
       sodipodi:cy="38.089287"
       sodipodi:rx="14.375"
       sodipodi:ry="14.375"
       d="m 19.107143,38.089287 a 14.375,14.375 0 1 1 -28.7500001,0 14.375,14.375 0 1 1 28.7500001,0 z" />
    <path
       transform="matrix(0.5726313,0,0,0.5726313,22.825941,999.47965)"
       sodipodi:type="arc"
       style="fill:#cfcdcd;fill-opacity:1;stroke:none;filter:url(#filter3994)"
       id="path3004-1-7-6"
       sodipodi:cx="4.7321429"
       sodipodi:cy="38.089287"
       sodipodi:rx="14.375"
       sodipodi:ry="14.375"
       d="m 19.107143,38.089287 a 14.375,14.375 0 1 1 -28.7500001,0 14.375,14.375 0 1 1 28.7500001,0 z" />
    <path
       transform="matrix(0.5726313,0,0,0.5726313,-5.2097732,1001.6225)"
       sodipodi:type="arc"
       style="fill:#cfcdcd;fill-opacity:1;stroke:none;filter:url(#filter3879-2-9)"
       id="path3004-1-7-5"
       sodipodi:cx="4.7321429"
       sodipodi:cy="38.089287"
       sodipodi:rx="14.375"
       sodipodi:ry="14.375"
       d="m 19.107143,38.089287 a 14.375,14.375 0 1 1 -28.7500001,0 14.375,14.375 0 1 1 28.7500001,0 z" />
  </g>
</svg>
