<?xml version="1.0" encoding="UTF-8" standalone="no"?>
<!-- Created with Inkscape (http://www.inkscape.org/) -->

<svg
   xmlns:dc="http://purl.org/dc/elements/1.1/"
   xmlns:cc="http://creativecommons.org/ns#"
   xmlns:rdf="http://www.w3.org/1999/02/22-rdf-syntax-ns#"
   xmlns:svg="http://www.w3.org/2000/svg"
   xmlns="http://www.w3.org/2000/svg"
   xmlns:xlink="http://www.w3.org/1999/xlink"
   xmlns:sodipodi="http://sodipodi.sourceforge.net/DTD/sodipodi-0.dtd"
   xmlns:inkscape="http://www.inkscape.org/namespaces/inkscape"
   width="32"
   height="32"
   id="svg3777"
   version="1.1"
   inkscape:version="0.48.2 r9819"
   sodipodi:docname="walljoin3.svg"
   inkscape:export-filename="/home/william/Dev/wksp/spacegame/spacegame/svg/block/walljoin3.png"
   inkscape:export-xdpi="180"
   inkscape:export-ydpi="180">
  <defs
     id="defs3779">
    <linearGradient
       id="linearGradient4649">
      <stop
         style="stop-color:#000000;stop-opacity:1;"
         offset="0"
         id="stop4651" />
      <stop
         style="stop-color:#000000;stop-opacity:0;"
         offset="1"
         id="stop4653" />
    </linearGradient>
    <linearGradient
       inkscape:collect="always"
       xlink:href="#linearGradient4649"
       id="linearGradient4655"
       x1="33.523811"
       y1="1022.3622"
       x2="33.523811"
       y2="1043.3623"
       gradientUnits="userSpaceOnUse" />
    <linearGradient
       inkscape:collect="always"
       xlink:href="#linearGradient4649"
       id="linearGradient4394"
       gradientUnits="userSpaceOnUse"
       x1="33.523811"
       y1="1022.3622"
       x2="33.523811"
       y2="1043.3623" />
    <linearGradient
       inkscape:collect="always"
       xlink:href="#linearGradient4649"
       id="linearGradient4208"
       gradientUnits="userSpaceOnUse"
       gradientTransform="matrix(1.05,0,0,1,0,-988.3622)"
       x1="33.523811"
       y1="1022.3622"
       x2="33.523811"
       y2="1043.3623" />
  </defs>
  <sodipodi:namedview
     id="base"
     pagecolor="#ffffff"
     bordercolor="#666666"
     borderopacity="1.0"
     inkscape:pageopacity="0"
     inkscape:pageshadow="2"
     inkscape:zoom="26"
     inkscape:cx="29.573268"
     inkscape:cy="28.127035"
     inkscape:document-units="px"
     inkscape:current-layer="layer1"
     showgrid="false"
     inkscape:window-width="1020"
     inkscape:window-height="577"
     inkscape:window-x="0"
     inkscape:window-y="19"
     inkscape:window-maximized="0"
     inkscape:snap-bbox="true"
     inkscape:bbox-paths="true"
     inkscape:bbox-nodes="true"
     inkscape:snap-bbox-edge-midpoints="false"
     inkscape:snap-page="true"
     inkscape:snap-global="false" />
  <metadata
     id="metadata3782">
    <rdf:RDF>
      <cc:Work
         rdf:about="">
        <dc:format>image/svg+xml</dc:format>
        <dc:type
           rdf:resource="http://purl.org/dc/dcmitype/StillImage" />
        <dc:title />
      </cc:Work>
    </rdf:RDF>
  </metadata>
  <g
     inkscape:label="Layer 1"
     inkscape:groupmode="layer"
     id="layer1"
     transform="translate(0,-1020.3622)">
    <path
       style="fill:#cb4611;fill-opacity:1;stroke:none"
       d="M 0,34 0,64 32,64 32,34 31.375,34 16.15625,49.21875 0.96875,34 0,34 z"
       transform="translate(0,988.3622)"
       id="rect4327"
       inkscape:connector-curvature="0" />
    <path
       style="fill:url(#linearGradient4208);fill-opacity:1;stroke:none"
       d="m 0,34 0,3 3.1875,0 0,-0.53125 L 0.71875,34 0,34 z m 32,0 0,3 3.1875,0 0,-3 L 32,34 z m -3.1875,2.125 -0.875,0.875 0.875,0 0,-0.875 z M 0,40 l 0,3 3.1875,0 0,-3 L 0,40 z m 6.40625,0 0,3 3.1875,0 0,-0.15625 L 6.75,40 6.40625,40 z m 19.1875,0 0,3 3.21875,0 0,-3 -3.21875,0 z M 32,40 l 0,3 3.1875,0 0,-3 L 32,40 z M 22.40625,42.53125 21.9375,43 l 0.46875,0 0,-0.46875 z M 0,46 l 0,3 3.1875,0 0,-3 L 0,46 z m 6.40625,0 0,3 3.1875,0 0,-3 -3.1875,0 z m 12.78125,0 0,3 3.21875,0 0,-3 -3.21875,0 z m 6.40625,0 0,3 3.21875,0 0,-3 -3.21875,0 z M 32,46 l 0,3 3.1875,0 0,-3 L 32,46 z m -19.1875,0.0625 0,2.9375 2.9375,0 -2.9375,-2.9375 z M 16,48.9375 15.9375,49 16,49 16,48.9375 z M 0,52 l 0,3 3.1875,0 0,-3 L 0,52 z m 6.40625,0 0,3 3.1875,0 0,-3 -3.1875,0 z m 6.40625,0 0,3 3.1875,0 0,-3 -3.1875,0 z m 6.375,0 0,3 3.21875,0 0,-3 -3.21875,0 z m 6.40625,0 0,3 3.21875,0 0,-3 -3.21875,0 z M 32,52 l 0,3 3.1875,0 0,-3 L 32,52 z"
       transform="translate(0,988.3622)"
       id="rect4337-6-9-4-4"
       inkscape:connector-curvature="0" />
    <path
       style="fill:#ffffff;fill-opacity:1;stroke:none"
       d="m 0,32 -1.40625,1.40625 16,16 L 16,50.8125 l 1.40625,-1.40625 16,-16 L 32,32 16,48 z"
       transform="translate(0,988.3622)"
       id="rect3806"
       inkscape:connector-curvature="0"
       sodipodi:nodetypes="ccccccccc" />
    <path
       sodipodi:type="arc"
       style="fill:none;stroke:#000000;stroke-width:1.30769217;stroke-linecap:square;stroke-linejoin:round;stroke-miterlimit:4;stroke-opacity:1;stroke-dasharray:none"
       id="path3238"
       sodipodi:cx="-0.07692308"
       sodipodi:cy="27.76923"
       sodipodi:rx="9.1538458"
       sodipodi:ry="9.1538458"
       d="m 9.0769227,27.76923 c 0,5.055529 -4.0983162,9.153846 -9.15384553,9.153846"
       transform="matrix(1.5294119,0,0,1.5294118,-57.651584,941.66086)"
       sodipodi:start="0"
       sodipodi:end="1.5707963"
       sodipodi:open="true" />
    <path
       sodipodi:type="arc"
       style="fill:none;stroke:#000000;stroke-width:1.30769217;stroke-linecap:square;stroke-linejoin:round;stroke-miterlimit:4;stroke-opacity:1;stroke-dasharray:none"
       id="path3238-7"
       sodipodi:cx="-0.07692308"
       sodipodi:cy="27.76923"
       sodipodi:rx="9.1538458"
       sodipodi:ry="9.1538458"
       d="m 9.0769227,27.76923 c 0,5.055529 -4.0983162,9.153846 -9.15384553,9.153846"
       transform="matrix(0,1.5294119,-1.5294118,0,14.701357,984.24906)"
       sodipodi:start="0"
       sodipodi:end="1.5707963"
       sodipodi:open="true" />
  </g>
</svg>
