<?xml version="1.0" encoding="UTF-8" standalone="no"?>
<!-- Created with Inkscape (http://www.inkscape.org/) -->

<svg
   xmlns:dc="http://purl.org/dc/elements/1.1/"
   xmlns:cc="http://creativecommons.org/ns#"
   xmlns:rdf="http://www.w3.org/1999/02/22-rdf-syntax-ns#"
   xmlns:svg="http://www.w3.org/2000/svg"
   xmlns="http://www.w3.org/2000/svg"
   xmlns:sodipodi="http://sodipodi.sourceforge.net/DTD/sodipodi-0.dtd"
   xmlns:inkscape="http://www.inkscape.org/namespaces/inkscape"
   width="500"
   height="500"
   id="svg2"
   version="1.1"
   inkscape:version="0.47 r22583"
   sodipodi:docname="New document 1">
  <defs
     id="defs4">
    <inkscape:perspective
       sodipodi:type="inkscape:persp3d"
       inkscape:vp_x="0 : 526.18109 : 1"
       inkscape:vp_y="0 : 1000 : 0"
       inkscape:vp_z="744.09448 : 526.18109 : 1"
       inkscape:persp3d-origin="372.04724 : 350.78739 : 1"
       id="perspective10" />
    <inkscape:perspective
       id="perspective2868"
       inkscape:persp3d-origin="0.5 : 0.33333333 : 1"
       inkscape:vp_z="1 : 0.5 : 1"
       inkscape:vp_y="0 : 1000 : 0"
       inkscape:vp_x="0 : 0.5 : 1"
       sodipodi:type="inkscape:persp3d" />
    <inkscape:perspective
       id="perspective3656"
       inkscape:persp3d-origin="0.5 : 0.33333333 : 1"
       inkscape:vp_z="1 : 0.5 : 1"
       inkscape:vp_y="0 : 1000 : 0"
       inkscape:vp_x="0 : 0.5 : 1"
       sodipodi:type="inkscape:persp3d" />
    <inkscape:perspective
       id="perspective3656-6"
       inkscape:persp3d-origin="0.5 : 0.33333333 : 1"
       inkscape:vp_z="1 : 0.5 : 1"
       inkscape:vp_y="0 : 1000 : 0"
       inkscape:vp_x="0 : 0.5 : 1"
       sodipodi:type="inkscape:persp3d" />
    <inkscape:perspective
       id="perspective3656-7"
       inkscape:persp3d-origin="0.5 : 0.33333333 : 1"
       inkscape:vp_z="1 : 0.5 : 1"
       inkscape:vp_y="0 : 1000 : 0"
       inkscape:vp_x="0 : 0.5 : 1"
       sodipodi:type="inkscape:persp3d" />
    <inkscape:perspective
       id="perspective3656-5"
       inkscape:persp3d-origin="0.5 : 0.33333333 : 1"
       inkscape:vp_z="1 : 0.5 : 1"
       inkscape:vp_y="0 : 1000 : 0"
       inkscape:vp_x="0 : 0.5 : 1"
       sodipodi:type="inkscape:persp3d" />
    <inkscape:perspective
       id="perspective3750"
       inkscape:persp3d-origin="0.5 : 0.33333333 : 1"
       inkscape:vp_z="1 : 0.5 : 1"
       inkscape:vp_y="0 : 1000 : 0"
       inkscape:vp_x="0 : 0.5 : 1"
       sodipodi:type="inkscape:persp3d" />
    <inkscape:perspective
       id="perspective3772"
       inkscape:persp3d-origin="0.5 : 0.33333333 : 1"
       inkscape:vp_z="1 : 0.5 : 1"
       inkscape:vp_y="0 : 1000 : 0"
       inkscape:vp_x="0 : 0.5 : 1"
       sodipodi:type="inkscape:persp3d" />
  </defs>
  <sodipodi:namedview
     id="base"
     pagecolor="#000000"
     bordercolor="#666666"
     borderopacity="1.0"
     inkscape:pageopacity="1"
     inkscape:pageshadow="2"
     inkscape:zoom="0.98994949"
     inkscape:cx="298.29693"
     inkscape:cy="321.34979"
     inkscape:document-units="px"
     inkscape:current-layer="layer1"
     showgrid="false"
     inkscape:window-width="1024"
     inkscape:window-height="549"
     inkscape:window-x="0"
     inkscape:window-y="24"
     inkscape:window-maximized="1" />
  <metadata
     id="metadata7">
    <rdf:RDF>
      <cc:Work
         rdf:about="">
        <dc:format>image/svg+xml</dc:format>
        <dc:type
           rdf:resource="http://purl.org/dc/dcmitype/StillImage" />
        <dc:title></dc:title>
      </cc:Work>
    </rdf:RDF>
  </metadata>
  <g
     inkscape:label="Layer 1"
     inkscape:groupmode="layer"
     id="layer1"
     transform="translate(0,-552.36218)">
    <g
       transform="matrix(0.48961378,0.87193942,-0.87193942,0.48961378,864.50889,34.582353)"
       id="g3885">
      <path
         transform="translate(0,552.36218)"
         d="m 454.2857,440 c 0,12.62365 -10.23349,22.85714 -22.85714,22.85714 -12.62365,0 -22.85715,-10.23349 -22.85715,-22.85714 0,-12.62365 10.2335,-22.85714 22.85715,-22.85714 12.62365,0 22.85714,10.23349 22.85714,22.85714 z"
         sodipodi:ry="22.857143"
         sodipodi:rx="22.857143"
         sodipodi:cy="440"
         sodipodi:cx="431.42856"
         id="path2816"
         style="color:#000000;fill:#c30000;fill-opacity:1;fill-rule:nonzero;stroke:none;stroke-width:1.5;marker:none;visibility:visible;display:inline;overflow:visible;enable-background:accumulate"
         sodipodi:type="arc" />
      <path
         id="path3590"
         d="m 426.42857,994.50504 c -30,-19.28571 -52.85714,-16.42857 -52.85714,-16.42857"
         style="fill:none;stroke:#c30000;stroke-width:8;stroke-linecap:round;stroke-linejoin:miter;stroke-miterlimit:4;stroke-opacity:1;stroke-dasharray:none" />
      <path
         id="path3590-8"
         d="m 407.90205,938.77565 c 7.5243,34.8615 25.686,49.03066 25.686,49.03066"
         style="fill:none;stroke:#c30000;stroke-width:8;stroke-linecap:round;stroke-linejoin:miter;stroke-miterlimit:4;stroke-opacity:1;stroke-dasharray:none" />
      <path
         transform="translate(-2.8571429,550.21932)"
         d="m 382.85713,428.92856 c 0,3.35316 -2.71827,6.07143 -6.07142,6.07143 -3.35316,0 -6.07143,-2.71827 -6.07143,-6.07143 0,-3.35316 2.71827,-6.07143 6.07143,-6.07143 3.35315,0 6.07142,2.71827 6.07142,6.07143 z"
         sodipodi:ry="6.0714288"
         sodipodi:rx="6.0714288"
         sodipodi:cy="428.92856"
         sodipodi:cx="376.78571"
         id="path3614"
         style="color:#000000;fill:#ffffff;fill-opacity:1;fill-rule:nonzero;stroke:none;stroke-width:8;marker:none;visibility:visible;display:inline;overflow:visible;enable-background:accumulate"
         sodipodi:type="arc" />
      <path
         transform="translate(31.785723,510.57648)"
         d="m 382.85713,428.92856 c 0,3.35316 -2.71827,6.07143 -6.07142,6.07143 -3.35316,0 -6.07143,-2.71827 -6.07143,-6.07143 0,-3.35316 2.71827,-6.07143 6.07143,-6.07143 3.35315,0 6.07142,2.71827 6.07142,6.07143 z"
         sodipodi:ry="6.0714288"
         sodipodi:rx="6.0714288"
         sodipodi:cy="428.92856"
         sodipodi:cx="376.78571"
         id="path3614-3"
         style="color:#000000;fill:#ffffff;fill-opacity:1;fill-rule:nonzero;stroke:none;stroke-width:8;marker:none;visibility:visible;display:inline;overflow:visible;enable-background:accumulate"
         sodipodi:type="arc" />
      <g
         id="g3820">
        <path
           sodipodi:type="arc"
           style="color:#000000;fill:#ffffff;fill-opacity:1;fill-rule:nonzero;stroke:#000000;stroke-width:10.66666889;stroke-linecap:round;stroke-linejoin:round;stroke-miterlimit:4;stroke-opacity:1;stroke-dasharray:none;stroke-dashoffset:0;marker:none;visibility:visible;display:inline;overflow:visible;enable-background:accumulate"
           id="path3816"
           sodipodi:cx="135.7645"
           sodipodi:cy="218.5715"
           sodipodi:rx="33.941124"
           sodipodi:ry="33.941124"
           d="m 169.70562,218.5715 c 0,18.74517 -15.19596,33.94113 -33.94112,33.94113 -18.74517,0 -33.94113,-15.19596 -33.94113,-33.94113 0,-18.74516 15.19596,-33.94112 33.94113,-33.94112 18.74516,0 33.94112,15.19596 33.94112,33.94112 z"
           transform="matrix(0.18749996,0,0,0.18749996,388.90874,949.15463)" />
        <path
           sodipodi:type="arc"
           style="color:#000000;fill:#000000;fill-opacity:1;fill-rule:nonzero;stroke:none;stroke-width:2;marker:none;visibility:visible;display:inline;overflow:visible;enable-background:accumulate"
           id="path3818"
           sodipodi:cx="428.68347"
           sodipodi:cy="435.83005"
           sodipodi:rx="2.2980971"
           sodipodi:ry="2.2980971"
           d="m 430.98157,435.83005 c 0,1.2692 -1.02889,2.29809 -2.2981,2.29809 -1.2692,0 -2.2981,-1.02889 -2.2981,-2.29809 0,-1.26921 1.0289,-2.2981 2.2981,-2.2981 1.26921,0 2.2981,1.02889 2.2981,2.2981 z"
           transform="translate(-15.026,553.95318)" />
      </g>
      <path
         transform="matrix(0.18749996,0,0,0.18749996,401.63666,936.42671)"
         d="m 169.70562,218.5715 c 0,18.74517 -15.19596,33.94113 -33.94112,33.94113 -18.74517,0 -33.94113,-15.19596 -33.94113,-33.94113 0,-18.74516 15.19596,-33.94112 33.94113,-33.94112 18.74516,0 33.94112,15.19596 33.94112,33.94112 z"
         sodipodi:ry="33.941124"
         sodipodi:rx="33.941124"
         sodipodi:cy="218.5715"
         sodipodi:cx="135.7645"
         id="path3816-8"
         style="color:#000000;fill:#ffffff;fill-opacity:1;fill-rule:nonzero;stroke:#000000;stroke-width:10.66666889;stroke-linecap:round;stroke-linejoin:round;stroke-miterlimit:4;stroke-opacity:1;stroke-dasharray:none;stroke-dashoffset:0;marker:none;visibility:visible;display:inline;overflow:visible;enable-background:accumulate"
         sodipodi:type="arc" />
      <path
         transform="translate(-3.0051828,540.87171)"
         d="m 430.98157,435.83005 c 0,1.2692 -1.02889,2.29809 -2.2981,2.29809 -1.2692,0 -2.2981,-1.02889 -2.2981,-2.29809 0,-1.26921 1.0289,-2.2981 2.2981,-2.2981 1.26921,0 2.2981,1.02889 2.2981,2.2981 z"
         sodipodi:ry="2.2980971"
         sodipodi:rx="2.2980971"
         sodipodi:cy="435.83005"
         sodipodi:cx="428.68347"
         id="path3818-2"
         style="color:#000000;fill:#000000;fill-opacity:1;fill-rule:nonzero;stroke:none;stroke-width:2;marker:none;visibility:visible;display:inline;overflow:visible;enable-background:accumulate"
         sodipodi:type="arc" />
    </g>
    <path
       sodipodi:type="arc"
       style="color:#000000;fill:#2b9400;fill-opacity:1;fill-rule:nonzero;stroke:none;stroke-width:5;marker:none;visibility:visible;display:inline;overflow:visible;enable-background:accumulate"
       id="path2874"
       sodipodi:cx="192.85715"
       sodipodi:cy="431.42856"
       sodipodi:rx="40"
       sodipodi:ry="40"
       d="m 232.85715,431.42856 a 40,40 0 1 1 -80,0 40,40 0 1 1 80,0 z"
       transform="matrix(1.5682108,0,0,1.5682108,-105.0248,303.62411)" />
    <path
       sodipodi:type="arc"
       style="color:#000000;fill:#2b94d2;fill-opacity:1;fill-rule:nonzero;stroke:none;stroke-width:5;marker:none;visibility:visible;display:inline;overflow:visible;enable-background:accumulate"
       id="path2874-1"
       sodipodi:cx="192.85715"
       sodipodi:cy="431.42856"
       sodipodi:rx="40"
       sodipodi:ry="40"
       d="m 232.85715,431.42856 a 40,40 0 1 1 -80,0 40,40 0 1 1 80,0 z"
       transform="matrix(1.0631345,0,0,1.0631345,174.78427,419.94934)" />
    <path
       sodipodi:type="arc"
       style="color:#000000;fill:#632d00;fill-opacity:1;fill-rule:nonzero;stroke:none;stroke-width:5;marker:none;visibility:visible;display:inline;overflow:visible;enable-background:accumulate"
       id="path2874-1-3"
       sodipodi:cx="192.85715"
       sodipodi:cy="431.42856"
       sodipodi:rx="40"
       sodipodi:ry="40"
       d="m 232.85715,431.42856 a 40,40 0 1 1 -80,0 40,40 0 1 1 80,0 z"
       transform="matrix(1.2146574,0,0,1.2146574,32.424914,97.999317)" />
    <path
       style="fill:none;stroke:#a5a8a7;stroke-width:5;stroke-linecap:round;stroke-linejoin:round;stroke-opacity:1;stroke-miterlimit:4;stroke-dasharray:none"
       d="m 208.09142,364.63956 c 23.23351,-78.7919 27.27412,-91.92388 53.53809,-95.96449 26.26397,-4.04061 47.47717,-1.01016 50.50763,5.05076 3.03045,6.06092 22.22335,29.29442 22.22335,29.29442 l 2.02031,10.10153 c 0,0 -12.12183,2.0203 -13.13199,10.10152 -1.01015,8.08122 4.04061,14.14214 8.08122,14.14214 4.04062,0 9.09138,2.02031 9.09138,2.02031 l 4.04061,11.11167 7.07107,5.05077"
       id="path3786"
       transform="translate(0,552.36218)" />
    <path
       style="fill:none;stroke:#dcd6d2;stroke-width:5;stroke-linecap:butt;stroke-linejoin:miter;stroke-opacity:1;stroke-miterlimit:4;stroke-dasharray:none"
       d="m 351.53309,353.52788 c -107.07617,30.30458 -103.03556,36.36549 -103.03556,36.36549 0,0 18.18274,-38.38579 49.49747,-153.54318 C 329.30973,121.1928 320.21836,78.766389 320.21836,78.766389 l -5.05077,-20.203051 c 0,0 32.32489,-14.142136 32.32489,-26.263966 0,-12.121831 -6.06092,-21.213204 -13.13199,-21.213204 -7.07107,0 -16.16244,-2.020305 -24.24366,1.010153 -8.08122,3.030457 -20.20305,9.091373 -20.20305,9.091373 L 278.8021,3.0049477 c 0,0 -33.33503,1.0101525 -30.30457,9.0913733 3.03045,8.08122 -4.04061,5.050762 -8.08122,9.091373 -4.04061,4.04061 -5.05077,8.08122 -5.05077,8.08122 l -10.10152,5.050763 0,5.050762"
       id="path3788"
       transform="translate(0,552.36218)" />
  </g>
</svg>
