<?xml version="1.0" encoding="UTF-8" standalone="no"?>
<!-- Created with Inkscape (http://www.inkscape.org/) -->

<svg
   xmlns:dc="http://purl.org/dc/elements/1.1/"
   xmlns:cc="http://creativecommons.org/ns#"
   xmlns:rdf="http://www.w3.org/1999/02/22-rdf-syntax-ns#"
   xmlns:svg="http://www.w3.org/2000/svg"
   xmlns="http://www.w3.org/2000/svg"
   xmlns:sodipodi="http://sodipodi.sourceforge.net/DTD/sodipodi-0.dtd"
   xmlns:inkscape="http://www.inkscape.org/namespaces/inkscape"
   width="50"
   height="100"
   id="svg2"
   version="1.1"
   inkscape:version="0.48.1 r9760"
   sodipodi:docname="landing_gear_half.svg"
   inkscape:export-filename="/home/william/Dev/wksp/spacegame/svg/character/landing_gear_half.png"
   inkscape:export-xdpi="230.39999"
   inkscape:export-ydpi="230.39999">
  <defs
     id="defs4" />
  <sodipodi:namedview
     id="base"
     pagecolor="#ffffff"
     bordercolor="#666666"
     borderopacity="1.0"
     inkscape:pageopacity="0.0"
     inkscape:pageshadow="2"
     inkscape:zoom="3.959798"
     inkscape:cx="-12.987122"
     inkscape:cy="71.295455"
     inkscape:document-units="px"
     inkscape:current-layer="layer1"
     showgrid="false"
     inkscape:window-width="1680"
     inkscape:window-height="973"
     inkscape:window-x="1152"
     inkscape:window-y="24"
     inkscape:window-maximized="1" />
  <metadata
     id="metadata7">
    <rdf:RDF>
      <cc:Work
         rdf:about="">
        <dc:format>image/svg+xml</dc:format>
        <dc:type
           rdf:resource="http://purl.org/dc/dcmitype/StillImage" />
        <dc:title></dc:title>
      </cc:Work>
    </rdf:RDF>
  </metadata>
  <g
     inkscape:label="Layer 1"
     inkscape:groupmode="layer"
     id="layer1"
     transform="translate(0,-952.36218)">
    <g
       id="g4329">
      <path
         sodipodi:nodetypes="ccccc"
         inkscape:connector-curvature="0"
         id="path3757"
         d="m 2.5,1050.3672 21.71828,-57.07352 47.224632,40.15352 -7.828683,-33.84012 z"
         style="fill:none;stroke:#640828;stroke-width:5;stroke-linecap:butt;stroke-linejoin:bevel;stroke-miterlimit:4;stroke-opacity:1;stroke-dasharray:none" />
      <path
         sodipodi:nodetypes="ccccc"
         inkscape:connector-curvature="0"
         id="path3757-3"
         d="M 97.5,1050.3672 75.78172,993.29368 28.557088,1033.4472 36.385771,999.60708 z"
         style="fill:none;stroke:#640828;stroke-width:5;stroke-linecap:butt;stroke-linejoin:bevel;stroke-miterlimit:4;stroke-opacity:1;stroke-dasharray:none" />
      <path
         transform="matrix(0.20731338,-0.17237184,0.17237184,0.20731338,-18.057712,1017.7645)"
         d="m -4.0406108,140.65608 c 0,3.48683 -2.8266293,6.31346 -6.3134532,6.31346 -3.486824,0 -6.313453,-2.82663 -6.313453,-6.31346 0,-3.48682 2.826629,-6.31345 6.313453,-6.31345 3.4868239,0 6.3134532,2.82663 6.3134532,6.31345 z"
         sodipodi:ry="6.3134532"
         sodipodi:rx="6.3134532"
         sodipodi:cy="140.65608"
         sodipodi:cx="-10.354064"
         id="path3837-3"
         style="fill:#ffffff;fill-opacity:1;fill-rule:nonzero;stroke:none"
         sodipodi:type="arc" />
      <path
         transform="matrix(0.20731338,-0.17237184,0.17237184,0.20731338,-3.7123638,1005.837)"
         d="m -4.0406108,140.65608 c 0,3.48683 -2.8266293,6.31346 -6.3134532,6.31346 -3.486824,0 -6.313453,-2.82663 -6.313453,-6.31346 0,-3.48682 2.826629,-6.31345 6.313453,-6.31345 3.4868239,0 6.3134532,2.82663 6.3134532,6.31345 z"
         sodipodi:ry="6.3134532"
         sodipodi:rx="6.3134532"
         sodipodi:cy="140.65608"
         sodipodi:cx="-10.354064"
         id="path3837-9-7"
         style="fill:#ffffff;fill-opacity:1;fill-rule:nonzero;stroke:none"
         sodipodi:type="arc" />
      <path
         transform="matrix(0.20731338,-0.17237184,0.17237184,0.20731338,10.632984,993.90946)"
         d="m -4.0406108,140.65608 c 0,3.48683 -2.8266293,6.31346 -6.3134532,6.31346 -3.486824,0 -6.313453,-2.82663 -6.313453,-6.31346 0,-3.48682 2.826629,-6.31345 6.313453,-6.31345 3.4868239,0 6.3134532,2.82663 6.3134532,6.31345 z"
         sodipodi:ry="6.3134532"
         sodipodi:rx="6.3134532"
         sodipodi:cy="140.65608"
         sodipodi:cx="-10.354064"
         id="path3837-8-4"
         style="fill:#ffffff;fill-opacity:1;fill-rule:nonzero;stroke:none"
         sodipodi:type="arc" />
      <path
         transform="matrix(0.20731338,-0.17237184,0.17237184,0.20731338,24.978329,981.98194)"
         d="m -4.0406108,140.65608 c 0,3.48683 -2.8266293,6.31346 -6.3134532,6.31346 -3.486824,0 -6.313453,-2.82663 -6.313453,-6.31346 0,-3.48682 2.826629,-6.31345 6.313453,-6.31345 3.4868239,0 6.3134532,2.82663 6.3134532,6.31345 z"
         sodipodi:ry="6.3134532"
         sodipodi:rx="6.3134532"
         sodipodi:cy="140.65608"
         sodipodi:cx="-10.354064"
         id="path3837-2-3"
         style="fill:#ffffff;fill-opacity:1;fill-rule:nonzero;stroke:none"
         sodipodi:type="arc" />
      <path
         transform="matrix(0.20654988,0.17328599,-0.17328599,0.20654988,63.846867,977.60968)"
         d="m -4.0406108,140.65608 c 0,3.48683 -2.8266293,6.31346 -6.3134532,6.31346 -3.486824,0 -6.313453,-2.82663 -6.313453,-6.31346 0,-3.48682 2.826629,-6.31345 6.313453,-6.31345 3.4868239,0 6.3134532,2.82663 6.3134532,6.31345 z"
         sodipodi:ry="6.3134532"
         sodipodi:rx="6.3134532"
         sodipodi:cy="140.65608"
         sodipodi:cx="-10.354064"
         id="path3837-1-3-4"
         style="fill:#ffffff;fill-opacity:1;fill-rule:nonzero;stroke:none"
         sodipodi:type="arc" />
      <path
         transform="matrix(0.20654988,0.17328599,-0.17328599,0.20654988,93.830797,987.62384)"
         d="m -4.0406108,140.65608 c 0,3.48683 -2.8266293,6.31346 -6.3134532,6.31346 -3.486824,0 -6.313453,-2.82663 -6.313453,-6.31346 0,-3.48682 2.826629,-6.31345 6.313453,-6.31345 3.4868239,0 6.3134532,2.82663 6.3134532,6.31345 z"
         sodipodi:ry="6.3134532"
         sodipodi:rx="6.3134532"
         sodipodi:cy="140.65608"
         sodipodi:cx="-10.354064"
         id="path3837-4-4-6"
         style="fill:#ffffff;fill-opacity:1;fill-rule:nonzero;stroke:none"
         sodipodi:type="arc" />
      <path
         transform="matrix(0.20654988,0.17328599,-0.17328599,0.20654988,82.903554,993.59738)"
         d="m -4.0406108,140.65608 c 0,3.48683 -2.8266293,6.31346 -6.3134532,6.31346 -3.486824,0 -6.313453,-2.82663 -6.313453,-6.31346 0,-3.48682 2.826629,-6.31345 6.313453,-6.31345 3.4868239,0 6.3134532,2.82663 6.3134532,6.31345 z"
         sodipodi:ry="6.3134532"
         sodipodi:rx="6.3134532"
         sodipodi:cy="140.65608"
         sodipodi:cx="-10.354064"
         id="path3837-8-4-5"
         style="fill:#ffffff;fill-opacity:1;fill-rule:nonzero;stroke:none"
         sodipodi:type="arc" />
      <path
         transform="matrix(0.20654988,0.17328599,-0.17328599,0.20654988,92.431895,1001.5912)"
         d="m -4.0406108,140.65608 c 0,3.48683 -2.8266293,6.31346 -6.3134532,6.31346 -3.486824,0 -6.313453,-2.82663 -6.313453,-6.31346 0,-3.48682 2.826629,-6.31345 6.313453,-6.31345 3.4868239,0 6.3134532,2.82663 6.3134532,6.31345 z"
         sodipodi:ry="6.3134532"
         sodipodi:rx="6.3134532"
         sodipodi:cy="140.65608"
         sodipodi:cx="-10.354064"
         id="path3837-81-9-6"
         style="fill:#ffffff;fill-opacity:1;fill-rule:nonzero;stroke:none"
         sodipodi:type="arc" />
      <path
         transform="matrix(0.20654988,0.17328599,-0.17328599,0.20654988,97.196067,1005.5881)"
         d="m -4.0406108,140.65608 c 0,3.48683 -2.8266293,6.31346 -6.3134532,6.31346 -3.486824,0 -6.313453,-2.82663 -6.313453,-6.31346 0,-3.48682 2.826629,-6.31345 6.313453,-6.31345 3.4868239,0 6.3134532,2.82663 6.3134532,6.31345 z"
         sodipodi:ry="6.3134532"
         sodipodi:rx="6.3134532"
         sodipodi:cy="140.65608"
         sodipodi:cx="-10.354064"
         id="path3837-2-3-0"
         style="fill:#ffffff;fill-opacity:1;fill-rule:nonzero;stroke:none"
         sodipodi:type="arc" />
      <path
         transform="matrix(0.09640991,-0.25178566,0.25178566,0.09640991,-29.145226,1027.0995)"
         d="m -4.0406108,140.65608 c 0,3.48683 -2.8266293,6.31346 -6.3134532,6.31346 -3.486824,0 -6.313453,-2.82663 -6.313453,-6.31346 0,-3.48682 2.826629,-6.31345 6.313453,-6.31345 3.4868239,0 6.3134532,2.82663 6.3134532,6.31345 z"
         sodipodi:ry="6.3134532"
         sodipodi:rx="6.3134532"
         sodipodi:cy="140.65608"
         sodipodi:cx="-10.354064"
         id="path3837-3-8"
         style="fill:#ffffff;fill-opacity:1;fill-rule:nonzero;stroke:none"
         sodipodi:type="arc" />
      <path
         transform="matrix(0.09640991,-0.25178566,0.25178566,0.09640991,-26.921483,1021.2919)"
         d="m -4.0406108,140.65608 c 0,3.48683 -2.8266293,6.31346 -6.3134532,6.31346 -3.486824,0 -6.313453,-2.82663 -6.313453,-6.31346 0,-3.48682 2.826629,-6.31345 6.313453,-6.31345 3.4868239,0 6.3134532,2.82663 6.3134532,6.31345 z"
         sodipodi:ry="6.3134532"
         sodipodi:rx="6.3134532"
         sodipodi:cy="140.65608"
         sodipodi:cx="-10.354064"
         id="path3837-5-6-9"
         style="fill:#ffffff;fill-opacity:1;fill-rule:nonzero;stroke:none"
         sodipodi:type="arc" />
      <path
         transform="matrix(0.09640991,-0.25178566,0.25178566,0.09640991,-24.697743,1015.4843)"
         d="m -4.0406108,140.65608 c 0,3.48683 -2.8266293,6.31346 -6.3134532,6.31346 -3.486824,0 -6.313453,-2.82663 -6.313453,-6.31346 0,-3.48682 2.826629,-6.31345 6.313453,-6.31345 3.4868239,0 6.3134532,2.82663 6.3134532,6.31345 z"
         sodipodi:ry="6.3134532"
         sodipodi:rx="6.3134532"
         sodipodi:cy="140.65608"
         sodipodi:cx="-10.354064"
         id="path3837-1-3-6"
         style="fill:#ffffff;fill-opacity:1;fill-rule:nonzero;stroke:none"
         sodipodi:type="arc" />
      <path
         transform="matrix(0.09640991,-0.25178566,0.25178566,0.09640991,-22.474004,1009.6768)"
         d="m -4.0406108,140.65608 c 0,3.48683 -2.8266293,6.31346 -6.3134532,6.31346 -3.486824,0 -6.313453,-2.82663 -6.313453,-6.31346 0,-3.48682 2.826629,-6.31345 6.313453,-6.31345 3.4868239,0 6.3134532,2.82663 6.3134532,6.31345 z"
         sodipodi:ry="6.3134532"
         sodipodi:rx="6.3134532"
         sodipodi:cy="140.65608"
         sodipodi:cx="-10.354064"
         id="path3837-9-7-8"
         style="fill:#ffffff;fill-opacity:1;fill-rule:nonzero;stroke:none"
         sodipodi:type="arc" />
      <path
         transform="matrix(0.09640991,-0.25178566,0.25178566,0.09640991,-20.250264,1003.8692)"
         d="m -4.0406108,140.65608 c 0,3.48683 -2.8266293,6.31346 -6.3134532,6.31346 -3.486824,0 -6.313453,-2.82663 -6.313453,-6.31346 0,-3.48682 2.826629,-6.31345 6.313453,-6.31345 3.4868239,0 6.3134532,2.82663 6.3134532,6.31345 z"
         sodipodi:ry="6.3134532"
         sodipodi:rx="6.3134532"
         sodipodi:cy="140.65608"
         sodipodi:cx="-10.354064"
         id="path3837-4-4-5"
         style="fill:#ffffff;fill-opacity:1;fill-rule:nonzero;stroke:none"
         sodipodi:type="arc" />
      <path
         transform="matrix(0.09640991,-0.25178566,0.25178566,0.09640991,-18.026524,998.06168)"
         d="m -4.0406108,140.65608 c 0,3.48683 -2.8266293,6.31346 -6.3134532,6.31346 -3.486824,0 -6.313453,-2.82663 -6.313453,-6.31346 0,-3.48682 2.826629,-6.31345 6.313453,-6.31345 3.4868239,0 6.3134532,2.82663 6.3134532,6.31345 z"
         sodipodi:ry="6.3134532"
         sodipodi:rx="6.3134532"
         sodipodi:cy="140.65608"
         sodipodi:cx="-10.354064"
         id="path3837-46-9-98"
         style="fill:#ffffff;fill-opacity:1;fill-rule:nonzero;stroke:none"
         sodipodi:type="arc" />
      <path
         transform="matrix(0.09640991,-0.25178566,0.25178566,0.09640991,-15.802781,992.25412)"
         d="m -4.0406108,140.65608 c 0,3.48683 -2.8266293,6.31346 -6.3134532,6.31346 -3.486824,0 -6.313453,-2.82663 -6.313453,-6.31346 0,-3.48682 2.826629,-6.31345 6.313453,-6.31345 3.4868239,0 6.3134532,2.82663 6.3134532,6.31345 z"
         sodipodi:ry="6.3134532"
         sodipodi:rx="6.3134532"
         sodipodi:cy="140.65608"
         sodipodi:cx="-10.354064"
         id="path3837-8-4-7"
         style="fill:#ffffff;fill-opacity:1;fill-rule:nonzero;stroke:none"
         sodipodi:type="arc" />
      <path
         transform="matrix(0.09640991,-0.25178566,0.25178566,0.09640991,-13.579041,986.44657)"
         d="m -4.0406108,140.65608 c 0,3.48683 -2.8266293,6.31346 -6.3134532,6.31346 -3.486824,0 -6.313453,-2.82663 -6.313453,-6.31346 0,-3.48682 2.826629,-6.31345 6.313453,-6.31345 3.4868239,0 6.3134532,2.82663 6.3134532,6.31345 z"
         sodipodi:ry="6.3134532"
         sodipodi:rx="6.3134532"
         sodipodi:cy="140.65608"
         sodipodi:cx="-10.354064"
         id="path3837-10-2-0"
         style="fill:#ffffff;fill-opacity:1;fill-rule:nonzero;stroke:none"
         sodipodi:type="arc" />
      <path
         transform="matrix(0.09640991,-0.25178566,0.25178566,0.09640991,-11.355301,980.63901)"
         d="m -4.0406108,140.65608 c 0,3.48683 -2.8266293,6.31346 -6.3134532,6.31346 -3.486824,0 -6.313453,-2.82663 -6.313453,-6.31346 0,-3.48682 2.826629,-6.31345 6.313453,-6.31345 3.4868239,0 6.3134532,2.82663 6.3134532,6.31345 z"
         sodipodi:ry="6.3134532"
         sodipodi:rx="6.3134532"
         sodipodi:cy="140.65608"
         sodipodi:cx="-10.354064"
         id="path3837-81-9-7"
         style="fill:#ffffff;fill-opacity:1;fill-rule:nonzero;stroke:none"
         sodipodi:type="arc" />
      <path
         transform="matrix(0.20654988,0.17328599,-0.17328599,0.20654988,95.834078,996.44082)"
         d="m -4.0406108,140.65608 c 0,3.48683 -2.8266293,6.31346 -6.3134532,6.31346 -3.486824,0 -6.313453,-2.82663 -6.313453,-6.31346 0,-3.48682 2.826629,-6.31345 6.313453,-6.31345 3.4868239,0 6.3134532,2.82663 6.3134532,6.31345 z"
         sodipodi:ry="6.3134532"
         sodipodi:rx="6.3134532"
         sodipodi:cy="140.65608"
         sodipodi:cx="-10.354064"
         id="path3837-4-4-6-8"
         style="fill:#ffffff;fill-opacity:1;fill-rule:nonzero;stroke:none"
         sodipodi:type="arc" />
      <path
         transform="matrix(0.20654988,0.17328599,-0.17328599,0.20654988,91.793467,979.52076)"
         d="m -4.0406108,140.65608 c 0,3.48683 -2.8266293,6.31346 -6.3134532,6.31346 -3.486824,0 -6.313453,-2.82663 -6.313453,-6.31346 0,-3.48682 2.826629,-6.31345 6.313453,-6.31345 3.4868239,0 6.3134532,2.82663 6.3134532,6.31345 z"
         sodipodi:ry="6.3134532"
         sodipodi:rx="6.3134532"
         sodipodi:cy="140.65608"
         sodipodi:cx="-10.354064"
         id="path3837-4-4-6-5"
         style="fill:#ffffff;fill-opacity:1;fill-rule:nonzero;stroke:none"
         sodipodi:type="arc" />
      <path
         transform="matrix(-0.20731338,-0.17237184,-0.17237184,0.20731338,118.05771,1017.7645)"
         d="m -4.0406108,140.65608 c 0,3.48683 -2.8266293,6.31346 -6.3134532,6.31346 -3.486824,0 -6.313453,-2.82663 -6.313453,-6.31346 0,-3.48682 2.826629,-6.31345 6.313453,-6.31345 3.4868239,0 6.3134532,2.82663 6.3134532,6.31345 z"
         sodipodi:ry="6.3134532"
         sodipodi:rx="6.3134532"
         sodipodi:cy="140.65608"
         sodipodi:cx="-10.354064"
         id="path3837-3-0"
         style="fill:#ffffff;fill-opacity:1;fill-rule:nonzero;stroke:none"
         sodipodi:type="arc" />
      <path
         transform="matrix(-0.20731338,-0.17237184,-0.17237184,0.20731338,103.71236,1005.837)"
         d="m -4.0406108,140.65608 c 0,3.48683 -2.8266293,6.31346 -6.3134532,6.31346 -3.486824,0 -6.313453,-2.82663 -6.313453,-6.31346 0,-3.48682 2.826629,-6.31345 6.313453,-6.31345 3.4868239,0 6.3134532,2.82663 6.3134532,6.31345 z"
         sodipodi:ry="6.3134532"
         sodipodi:rx="6.3134532"
         sodipodi:cy="140.65608"
         sodipodi:cx="-10.354064"
         id="path3837-9-7-3"
         style="fill:#ffffff;fill-opacity:1;fill-rule:nonzero;stroke:none"
         sodipodi:type="arc" />
      <path
         transform="matrix(-0.20731338,-0.17237184,-0.17237184,0.20731338,89.367016,993.90946)"
         d="m -4.0406108,140.65608 c 0,3.48683 -2.8266293,6.31346 -6.3134532,6.31346 -3.486824,0 -6.313453,-2.82663 -6.313453,-6.31346 0,-3.48682 2.826629,-6.31345 6.313453,-6.31345 3.4868239,0 6.3134532,2.82663 6.3134532,6.31345 z"
         sodipodi:ry="6.3134532"
         sodipodi:rx="6.3134532"
         sodipodi:cy="140.65608"
         sodipodi:cx="-10.354064"
         id="path3837-8-4-2"
         style="fill:#ffffff;fill-opacity:1;fill-rule:nonzero;stroke:none"
         sodipodi:type="arc" />
      <path
         transform="matrix(-0.20731338,-0.17237184,-0.17237184,0.20731338,75.021671,981.98194)"
         d="m -4.0406108,140.65608 c 0,3.48683 -2.8266293,6.31346 -6.3134532,6.31346 -3.486824,0 -6.313453,-2.82663 -6.313453,-6.31346 0,-3.48682 2.826629,-6.31345 6.313453,-6.31345 3.4868239,0 6.3134532,2.82663 6.3134532,6.31345 z"
         sodipodi:ry="6.3134532"
         sodipodi:rx="6.3134532"
         sodipodi:cy="140.65608"
         sodipodi:cx="-10.354064"
         id="path3837-2-3-6"
         style="fill:#ffffff;fill-opacity:1;fill-rule:nonzero;stroke:none"
         sodipodi:type="arc" />
      <path
         transform="matrix(-0.20654988,0.17328599,0.17328599,0.20654988,36.153133,977.60968)"
         d="m -4.0406108,140.65608 c 0,3.48683 -2.8266293,6.31346 -6.3134532,6.31346 -3.486824,0 -6.313453,-2.82663 -6.313453,-6.31346 0,-3.48682 2.826629,-6.31345 6.313453,-6.31345 3.4868239,0 6.3134532,2.82663 6.3134532,6.31345 z"
         sodipodi:ry="6.3134532"
         sodipodi:rx="6.3134532"
         sodipodi:cy="140.65608"
         sodipodi:cx="-10.354064"
         id="path3837-1-3-4-5"
         style="fill:#ffffff;fill-opacity:1;fill-rule:nonzero;stroke:none"
         sodipodi:type="arc" />
      <path
         transform="matrix(-0.20654988,0.17328599,0.17328599,0.20654988,6.169203,987.62384)"
         d="m -4.0406108,140.65608 c 0,3.48683 -2.8266293,6.31346 -6.3134532,6.31346 -3.486824,0 -6.313453,-2.82663 -6.313453,-6.31346 0,-3.48682 2.826629,-6.31345 6.313453,-6.31345 3.4868239,0 6.3134532,2.82663 6.3134532,6.31345 z"
         sodipodi:ry="6.3134532"
         sodipodi:rx="6.3134532"
         sodipodi:cy="140.65608"
         sodipodi:cx="-10.354064"
         id="path3837-4-4-6-9"
         style="fill:#ffffff;fill-opacity:1;fill-rule:nonzero;stroke:none"
         sodipodi:type="arc" />
      <path
         transform="matrix(-0.20654988,0.17328599,0.17328599,0.20654988,17.096446,993.59738)"
         d="m -4.0406108,140.65608 c 0,3.48683 -2.8266293,6.31346 -6.3134532,6.31346 -3.486824,0 -6.313453,-2.82663 -6.313453,-6.31346 0,-3.48682 2.826629,-6.31345 6.313453,-6.31345 3.4868239,0 6.3134532,2.82663 6.3134532,6.31345 z"
         sodipodi:ry="6.3134532"
         sodipodi:rx="6.3134532"
         sodipodi:cy="140.65608"
         sodipodi:cx="-10.354064"
         id="path3837-8-4-5-2"
         style="fill:#ffffff;fill-opacity:1;fill-rule:nonzero;stroke:none"
         sodipodi:type="arc" />
      <path
         transform="matrix(-0.20654988,0.17328599,0.17328599,0.20654988,7.568105,1001.5912)"
         d="m -4.0406108,140.65608 c 0,3.48683 -2.8266293,6.31346 -6.3134532,6.31346 -3.486824,0 -6.313453,-2.82663 -6.313453,-6.31346 0,-3.48682 2.826629,-6.31345 6.313453,-6.31345 3.4868239,0 6.3134532,2.82663 6.3134532,6.31345 z"
         sodipodi:ry="6.3134532"
         sodipodi:rx="6.3134532"
         sodipodi:cy="140.65608"
         sodipodi:cx="-10.354064"
         id="path3837-81-9-6-3"
         style="fill:#ffffff;fill-opacity:1;fill-rule:nonzero;stroke:none"
         sodipodi:type="arc" />
      <path
         transform="matrix(-0.20654988,0.17328599,0.17328599,0.20654988,2.803933,1005.5881)"
         d="m -4.0406108,140.65608 c 0,3.48683 -2.8266293,6.31346 -6.3134532,6.31346 -3.486824,0 -6.313453,-2.82663 -6.313453,-6.31346 0,-3.48682 2.826629,-6.31345 6.313453,-6.31345 3.4868239,0 6.3134532,2.82663 6.3134532,6.31345 z"
         sodipodi:ry="6.3134532"
         sodipodi:rx="6.3134532"
         sodipodi:cy="140.65608"
         sodipodi:cx="-10.354064"
         id="path3837-2-3-0-7"
         style="fill:#ffffff;fill-opacity:1;fill-rule:nonzero;stroke:none"
         sodipodi:type="arc" />
      <path
         transform="matrix(-0.09640991,-0.25178566,-0.25178566,0.09640991,129.14523,1027.0995)"
         d="m -4.0406108,140.65608 c 0,3.48683 -2.8266293,6.31346 -6.3134532,6.31346 -3.486824,0 -6.313453,-2.82663 -6.313453,-6.31346 0,-3.48682 2.826629,-6.31345 6.313453,-6.31345 3.4868239,0 6.3134532,2.82663 6.3134532,6.31345 z"
         sodipodi:ry="6.3134532"
         sodipodi:rx="6.3134532"
         sodipodi:cy="140.65608"
         sodipodi:cx="-10.354064"
         id="path3837-3-8-8"
         style="fill:#ffffff;fill-opacity:1;fill-rule:nonzero;stroke:none"
         sodipodi:type="arc" />
      <path
         transform="matrix(-0.09640991,-0.25178566,-0.25178566,0.09640991,126.92148,1021.2919)"
         d="m -4.0406108,140.65608 c 0,3.48683 -2.8266293,6.31346 -6.3134532,6.31346 -3.486824,0 -6.313453,-2.82663 -6.313453,-6.31346 0,-3.48682 2.826629,-6.31345 6.313453,-6.31345 3.4868239,0 6.3134532,2.82663 6.3134532,6.31345 z"
         sodipodi:ry="6.3134532"
         sodipodi:rx="6.3134532"
         sodipodi:cy="140.65608"
         sodipodi:cx="-10.354064"
         id="path3837-5-6-9-4"
         style="fill:#ffffff;fill-opacity:1;fill-rule:nonzero;stroke:none"
         sodipodi:type="arc" />
      <path
         transform="matrix(-0.09640991,-0.25178566,-0.25178566,0.09640991,124.69774,1015.4843)"
         d="m -4.0406108,140.65608 c 0,3.48683 -2.8266293,6.31346 -6.3134532,6.31346 -3.486824,0 -6.313453,-2.82663 -6.313453,-6.31346 0,-3.48682 2.826629,-6.31345 6.313453,-6.31345 3.4868239,0 6.3134532,2.82663 6.3134532,6.31345 z"
         sodipodi:ry="6.3134532"
         sodipodi:rx="6.3134532"
         sodipodi:cy="140.65608"
         sodipodi:cx="-10.354064"
         id="path3837-1-3-6-7"
         style="fill:#ffffff;fill-opacity:1;fill-rule:nonzero;stroke:none"
         sodipodi:type="arc" />
      <path
         transform="matrix(-0.09640991,-0.25178566,-0.25178566,0.09640991,122.474,1009.6768)"
         d="m -4.0406108,140.65608 c 0,3.48683 -2.8266293,6.31346 -6.3134532,6.31346 -3.486824,0 -6.313453,-2.82663 -6.313453,-6.31346 0,-3.48682 2.826629,-6.31345 6.313453,-6.31345 3.4868239,0 6.3134532,2.82663 6.3134532,6.31345 z"
         sodipodi:ry="6.3134532"
         sodipodi:rx="6.3134532"
         sodipodi:cy="140.65608"
         sodipodi:cx="-10.354064"
         id="path3837-9-7-8-3"
         style="fill:#ffffff;fill-opacity:1;fill-rule:nonzero;stroke:none"
         sodipodi:type="arc" />
      <path
         transform="matrix(-0.09640991,-0.25178566,-0.25178566,0.09640991,120.25026,1003.8692)"
         d="m -4.0406108,140.65608 c 0,3.48683 -2.8266293,6.31346 -6.3134532,6.31346 -3.486824,0 -6.313453,-2.82663 -6.313453,-6.31346 0,-3.48682 2.826629,-6.31345 6.313453,-6.31345 3.4868239,0 6.3134532,2.82663 6.3134532,6.31345 z"
         sodipodi:ry="6.3134532"
         sodipodi:rx="6.3134532"
         sodipodi:cy="140.65608"
         sodipodi:cx="-10.354064"
         id="path3837-4-4-5-6"
         style="fill:#ffffff;fill-opacity:1;fill-rule:nonzero;stroke:none"
         sodipodi:type="arc" />
      <path
         transform="matrix(-0.09640991,-0.25178566,-0.25178566,0.09640991,118.02652,998.06168)"
         d="m -4.0406108,140.65608 c 0,3.48683 -2.8266293,6.31346 -6.3134532,6.31346 -3.486824,0 -6.313453,-2.82663 -6.313453,-6.31346 0,-3.48682 2.826629,-6.31345 6.313453,-6.31345 3.4868239,0 6.3134532,2.82663 6.3134532,6.31345 z"
         sodipodi:ry="6.3134532"
         sodipodi:rx="6.3134532"
         sodipodi:cy="140.65608"
         sodipodi:cx="-10.354064"
         id="path3837-46-9-98-3"
         style="fill:#ffffff;fill-opacity:1;fill-rule:nonzero;stroke:none"
         sodipodi:type="arc" />
      <path
         transform="matrix(-0.09640991,-0.25178566,-0.25178566,0.09640991,115.80278,992.25412)"
         d="m -4.0406108,140.65608 c 0,3.48683 -2.8266293,6.31346 -6.3134532,6.31346 -3.486824,0 -6.313453,-2.82663 -6.313453,-6.31346 0,-3.48682 2.826629,-6.31345 6.313453,-6.31345 3.4868239,0 6.3134532,2.82663 6.3134532,6.31345 z"
         sodipodi:ry="6.3134532"
         sodipodi:rx="6.3134532"
         sodipodi:cy="140.65608"
         sodipodi:cx="-10.354064"
         id="path3837-8-4-7-6"
         style="fill:#ffffff;fill-opacity:1;fill-rule:nonzero;stroke:none"
         sodipodi:type="arc" />
      <path
         transform="matrix(-0.09640991,-0.25178566,-0.25178566,0.09640991,113.57904,986.44657)"
         d="m -4.0406108,140.65608 c 0,3.48683 -2.8266293,6.31346 -6.3134532,6.31346 -3.486824,0 -6.313453,-2.82663 -6.313453,-6.31346 0,-3.48682 2.826629,-6.31345 6.313453,-6.31345 3.4868239,0 6.3134532,2.82663 6.3134532,6.31345 z"
         sodipodi:ry="6.3134532"
         sodipodi:rx="6.3134532"
         sodipodi:cy="140.65608"
         sodipodi:cx="-10.354064"
         id="path3837-10-2-0-9"
         style="fill:#ffffff;fill-opacity:1;fill-rule:nonzero;stroke:none"
         sodipodi:type="arc" />
      <path
         transform="matrix(-0.09640991,-0.25178566,-0.25178566,0.09640991,111.3553,980.63901)"
         d="m -4.0406108,140.65608 c 0,3.48683 -2.8266293,6.31346 -6.3134532,6.31346 -3.486824,0 -6.313453,-2.82663 -6.313453,-6.31346 0,-3.48682 2.826629,-6.31345 6.313453,-6.31345 3.4868239,0 6.3134532,2.82663 6.3134532,6.31345 z"
         sodipodi:ry="6.3134532"
         sodipodi:rx="6.3134532"
         sodipodi:cy="140.65608"
         sodipodi:cx="-10.354064"
         id="path3837-81-9-7-2"
         style="fill:#ffffff;fill-opacity:1;fill-rule:nonzero;stroke:none"
         sodipodi:type="arc" />
      <path
         transform="matrix(-0.20654988,0.17328599,0.17328599,0.20654988,4.165922,996.44082)"
         d="m -4.0406108,140.65608 c 0,3.48683 -2.8266293,6.31346 -6.3134532,6.31346 -3.486824,0 -6.313453,-2.82663 -6.313453,-6.31346 0,-3.48682 2.826629,-6.31345 6.313453,-6.31345 3.4868239,0 6.3134532,2.82663 6.3134532,6.31345 z"
         sodipodi:ry="6.3134532"
         sodipodi:rx="6.3134532"
         sodipodi:cy="140.65608"
         sodipodi:cx="-10.354064"
         id="path3837-4-4-6-8-7"
         style="fill:#ffffff;fill-opacity:1;fill-rule:nonzero;stroke:none"
         sodipodi:type="arc" />
      <path
         transform="matrix(-0.20654988,0.17328599,0.17328599,0.20654988,8.206533,979.52076)"
         d="m -4.0406108,140.65608 c 0,3.48683 -2.8266293,6.31346 -6.3134532,6.31346 -3.486824,0 -6.313453,-2.82663 -6.313453,-6.31346 0,-3.48682 2.826629,-6.31345 6.313453,-6.31345 3.4868239,0 6.3134532,2.82663 6.3134532,6.31345 z"
         sodipodi:ry="6.3134532"
         sodipodi:rx="6.3134532"
         sodipodi:cy="140.65608"
         sodipodi:cx="-10.354064"
         id="path3837-4-4-6-5-2"
         style="fill:#ffffff;fill-opacity:1;fill-rule:nonzero;stroke:none"
         sodipodi:type="arc" />
    </g>
  </g>
</svg>
