/* XPM */
static char * iconhuge_xpm[] = {
"64 64 312 2",
"  	c None",
". 	c #BAD76C",
"+ 	c #B9D66B",
"@ 	c #B9D56A",
"# 	c #BAD76A",
"$ 	c #AACE47",
"% 	c #B7D469",
"& 	c #B6D367",
"* 	c #A3C445",
"= 	c #A5C845",
"- 	c #B9D668",
"; 	c #B1CF62",
"> 	c #B5D362",
", 	c #B6D561",
"' 	c #B5D45F",
") 	c #B4D45D",
"! 	c #B3D35B",
"~ 	c #B3D35A",
"{ 	c #B1D258",
"] 	c #ACCC54",
"^ 	c #A0BF4D",
"/ 	c #ACCF49",
"( 	c #B8D668",
"_ 	c #B8D667",
": 	c #B7D565",
"< 	c #B6D563",
"[ 	c #B6D461",
"} 	c #B4D35D",
"| 	c #B2D35B",
"1 	c #B2D25A",
"2 	c #B1D156",
"3 	c #B0D154",
"4 	c #AFD152",
"5 	c #ABCD4F",
"6 	c #90AD42",
"7 	c #9EBE44",
"8 	c #A0C145",
"9 	c #B7D667",
"0 	c #AFD052",
"a 	c #ADCF50",
"b 	c #ADCF4E",
"c 	c #ABCD4C",
"d 	c #ADD04C",
"e 	c #BBD76E",
"f 	c #ADD050",
"g 	c #ACCF4D",
"h 	c #ACCE4B",
"i 	c #A1C245",
"j 	c #BCD870",
"k 	c #AACD49",
"l 	c #A8CC46",
"m 	c #BCD871",
"n 	c #BBD86E",
"o 	c #B6D462",
"p 	c #B4D460",
"q 	c #ABCE49",
"r 	c #A9CD47",
"s 	c #ABCE46",
"t 	c #BBD672",
"u 	c #BCD972",
"v 	c #BBD76C",
"w 	c #F8FBF1",
"x 	c #F7FAEE",
"y 	c #BBD76F",
"z 	c #A9CC45",
"A 	c #AACE44",
"B 	c #BED974",
"C 	c #C7DE87",
"D 	c #FFFFFF",
"E 	c #DCEAB4",
"F 	c #B6D463",
"G 	c #ADCF4F",
"H 	c #C0DA76",
"I 	c #A8CC44",
"J 	c #A9CD45",
"K 	c #A8CC43",
"L 	c #A7CC41",
"M 	c #BBD673",
"N 	c #EDF4D7",
"O 	c #C9DF8C",
"P 	c #EDF4D8",
"Q 	c #E8F1CC",
"R 	c #A7CC42",
"S 	c #A7CB41",
"T 	c #9DC03C",
"U 	c #BFDA75",
"V 	c #B6D564",
"W 	c #B4D45F",
"X 	c #B7D564",
"Y 	c #AACD48",
"Z 	c #F0F6DE",
"` 	c #FEFEFE",
" .	c #A5CB3C",
"..	c #A7CC40",
"+.	c #748E2C",
"@.	c #EAF3D3",
"#.	c #D1E59D",
"$.	c #A7CB40",
"%.	c #A7CD3C",
"&.	c #71746A",
"*.	c #717171",
"=.	c #505050",
"-.	c #BDD972",
";.	c #BAD76E",
">.	c #BAD76B",
",.	c #A9CD46",
"'.	c #AACD47",
").	c #A6CB3E",
"!.	c #6D842C",
"~.	c #0F0E10",
"{.	c #323232",
"].	c #696969",
"^.	c #707070",
"/.	c #B4D169",
"(.	c #D0E696",
"_.	c #AEB991",
":.	c #979D86",
"<.	c #919683",
"[.	c #9EA789",
"}.	c #BDCD91",
"|.	c #D1E894",
"1.	c #C3DF76",
"2.	c #B8D762",
"3.	c #B5D460",
"4.	c #A9D03D",
"5.	c #1A1A19",
"6.	c #191919",
"7.	c #171717",
"8.	c #212121",
"9.	c #838383",
"0.	c #B3B5AD",
"a.	c #504F53",
"b.	c #484848",
"c.	c #4A4A4A",
"d.	c #444444",
"e.	c #3E3D3E",
"f.	c #3D3D40",
"g.	c #5D5B61",
"h.	c #787978",
"i.	c #8A8F7C",
"j.	c #9BA581",
"k.	c #ACBA85",
"l.	c #BCCE89",
"m.	c #CBE28D",
"n.	c #CAE580",
"o.	c #BEDD6A",
"p.	c #B3D656",
"q.	c #B0D351",
"r.	c #AED14F",
"s.	c #ACCE4C",
"t.	c #ABCE4B",
"u.	c #ABCE4A",
"v.	c #A6CB3D",
"w.	c #A5CB3D",
"x.	c #A7CB3F",
"y.	c #A6CC3C",
"z.	c #515F26",
"A.	c #181819",
"B.	c #232323",
"C.	c #727272",
"D.	c #A7A7A7",
"E.	c #494949",
"F.	c #4E4E4E",
"G.	c #4C4C4C",
"H.	c #4B4B4B",
"I.	c #474747",
"J.	c #454545",
"K.	c #434343",
"L.	c #424242",
"M.	c #404040",
"N.	c #3F3F3F",
"O.	c #3A3A3A",
"P.	c #353635",
"Q.	c #323132",
"R.	c #2E2D30",
"S.	c #3A383D",
"T.	c #504F55",
"U.	c #656369",
"V.	c #71736E",
"W.	c #7C8070",
"X.	c #868D72",
"Y.	c #8D9773",
"Z.	c #95A274",
"`.	c #9BA975",
" +	c #9EAD74",
".+	c #9FAE73",
"++	c #9AA972",
"@+	c #8A956D",
"#+	c #787E67",
"$+	c #8C986B",
"%+	c #B1C776",
"&+	c #B5D852",
"*+	c #A2C937",
"=+	c #809C32",
"-+	c #151418",
";+	c #181818",
">+	c #606060",
",+	c #545454",
"'+	c #4D4D4D",
")+	c #464646",
"!+	c #414141",
"~+	c #3E3E3E",
"{+	c #3C3C3C",
"]+	c #383838",
"^+	c #363636",
"/+	c #353535",
"(+	c #333333",
"_+	c #303030",
":+	c #2E2E2E",
"<+	c #2B2B2B",
"[+	c #272727",
"}+	c #252525",
"|+	c #222222",
"1+	c #202020",
"2+	c #1F1F1F",
"3+	c #1C1C1C",
"4+	c #131314",
"5+	c #3D3B42",
"6+	c #8B956C",
"7+	c #B9D95E",
"8+	c #0F0D14",
"9+	c #101010",
"0+	c #7F7F7F",
"a+	c #9D9D9D",
"b+	c #515151",
"c+	c #4F4F4F",
"d+	c #3D3D3D",
"e+	c #3B3B3B",
"f+	c #393939",
"g+	c #373737",
"h+	c #343434",
"i+	c #313131",
"j+	c #2F2F2F",
"k+	c #2D2D2D",
"l+	c #2C2C2C",
"m+	c #2A2A2A",
"n+	c #282828",
"o+	c #262626",
"p+	c #242424",
"q+	c #1E1E1E",
"r+	c #323134",
"s+	c #595A57",
"t+	c #666666",
"u+	c #525252",
"v+	c #292929",
"w+	c #1D1D1D",
"x+	c #1B1B1B",
"y+	c #1A1A1A",
"z+	c #111111",
"A+	c #777777",
"B+	c #ACACAC",
"C+	c #535353",
"D+	c #141414",
"E+	c #6C6C6C",
"F+	c #848484",
"G+	c #575757",
"H+	c #555555",
"I+	c #787878",
"J+	c #646464",
"K+	c #5F5F5F",
"L+	c #A9A9A9",
"M+	c #585858",
"N+	c #565656",
"O+	c #151515",
"P+	c #161616",
"Q+	c #919191",
"R+	c #5B5B5B",
"S+	c #595959",
"T+	c #686868",
"U+	c #757575",
"V+	c #5C5C5C",
"W+	c #5A5A5A",
"X+	c #626262",
"Y+	c #121212",
"Z+	c #0F0F0F",
"`+	c #7A7A7A",
" @	c #BABABA",
".@	c #5D5D5D",
"+@	c #A3A3A3",
"@@	c #5E5E5E",
"#@	c #969696",
"$@	c #131313",
"%@	c #7C7C7C",
"&@	c #909090",
"*@	c #6D6D6D",
"=@	c #616161",
"-@	c #6E6E6E",
";@	c #636363",
">@	c #8C8C8C",
",@	c #9C9C9C",
"'@	c #949494",
")@	c #8A8A8A",
"!@	c #828282",
"~@	c #7B7B7B",
"{@	c #6F6F6F",
"]@	c #656565",
"^@	c #737373",
"/@	c #8E8E8E",
"(@	c #808080",
"_@	c #A8A8A8",
":@	c #8D8D8D",
"<@	c #959595",
"[@	c #767676",
"}@	c #9A9A9A",
"|@	c #C9C9C9",
"1@	c #C8C8C8",
"2@	c #A1A1A1",
"3@	c #979797",
"4@	c #9F9F9F",
"5@	c #0E0E0E",
"6@	c #9B9B9B",
"7@	c #B3B3B3",
"                                                                                                                                ",
"                                                                                                                                ",
"                                                                                                                                ",
"                                                                                                                                ",
"                                                                                                                                ",
"                                                                                                                                ",
"                                                                                                                                ",
"                                                                                                                                ",
"                              .                                                                                                 ",
"                              + @                                                                                               ",
"                                #                                     $                                                         ",
"                                % &                                 * =                                                         ",
"                                  -   ; > , ' ) ! ~ { ] ^           /                                                           ",
"                                  ( _ : < [ ' } | 1 { 2 3 4 5 6   7 8                                                           ",
"                              + # ( 9 : < [ ' } | 1 { 2 3 0 a b c d                                                             ",
"                            e . # - 9 : < [ ' } | 1 { 2 3 0 f b g h i                                                           ",
"                          j e . # - 9 : < [ ' } | 1 { 2 3 0 f b g h k l                                                         ",
"                        m j n . # o p : < [ ' } | 1 { 2 3 0 f b g h q r s                                                       ",
"                      t u j n . v w x y < [ ' } | 1 { 2 3 0 f b g h q r z A                                                     ",
"                      B u j n . C D D E F [ ' } | 1 { 2 3 0 f b G H I r J K L                                                   ",
"                    M B u j n . : N D O < [ ' } | 1 { 2 3 0 f q P D Q R J K S T                                                 ",
"                    U B u j n . # V W X < [ ' } | 1 { 2 3 0 f Y Z ` D  .J K L ..+.                                              ",
"                    U B u j n . # - 9 : < [ ' } | 1 { 2 3 0 f b [ @.#.I J K L $.%.&.*.=.                                        ",
"                    U -.;.. >.. # - 9 : < [ ' } | 1 { 2 3 0 f b g ,.'.r J K L $.).!.~.{.].^.                                    ",
"                  /.(._.:.<.[.}.|.1.2.3.3.3.' } | 1 { 2 3 0 f b g h q r J K L $.).4.5.6.7.8.9.                                  ",
"                  0.a.b.c.b.d.e.f.g.h.i.j.k.l.m.n.o.p.q.r.g s.h t.u.Y z S v.w.x.).y.z.A.6.6.B.C.                                ",
"                D.E.F.G.H.E.I.J.K.L.M.N.O.P.Q.R.S.T.U.V.W.X.Y.Z.`. +.+++@+#+$+%+&+*+=+-+6.6.;+>+                                ",
"                ,+=.F.'+H.c.b.)+d.K.!+N.~+{+O.]+^+/+(+{._+:+<+[+}+|+1+2+1+8.3+4+5+6+7+8+6.6.6.9+0+                              ",
"              a+b+b+c+F.G.c.E.I.J.K.!+M.~+d+e+f+g+^+h+{.i+j+k+l+m+n+o+p+B.8.1+q+3+7.r+s+7.6.6.6.E.                              ",
"              t+,+u+=.F.G.H.E.b.)+d.L.!+N.d+{+O.]+^+/+(+i+j+:+l+m+v+[+}+p+|+1+2+w+x+y+L./+6.6.6.z+A+                            ",
"            B+u+,+C+b+c+'+G.c.b.I.J.K.!+M.~+{+O.f+g+/+h+{._+j+k+<+m+n+o+p+|+8.2+q+3+y+D+E+9+6.6.6.H.                            ",
"            F+G+H+C+u+=.F.G.H.E.I.)+d.L.M.N.d+e+O.]+^+/+(+i+j+k+l+m+v+[+}+B.8.1+q+w+x+6.1+G+6.6.6.9+I+                          ",
"            ,+G+H+,+u+b+c+'+H.c.b.)+J.K.!+M.~+{+O.]+g+/+h+{._+:+l+<+v+n+o+p+|+8.2+w+3+y+;+J+z+6.6.6.K+                          ",
"          L+G+M+N+H+C+b+=.F.G.c.E.I.J.K.L.M.N.d+e+f+]+^+h+(+i+j+k+<+m+n+[+}+B.8.2+q+3+x+6.O+K+;+6.6.P+I+                        ",
"          Q+R+S+G+H+,+u+=.F.'+H.c.b.)+d.K.!+N.~+{+O.]+^+/+(+{._+:+l+m+v+[+o+p+|+1+2+w+x+y+;+J+9+6.6.P+T+                        ",
"          U+R+S+M+N+,+C+b+c+F.G.c.E.I.J.K.!+M.~+d+e+f+g+/+h+{.i+j+k+<+m+n+o+}+B.8.1+q+3+y+6.y+S+6.6.6.E.                        ",
"          M+V+W+S+G+H+C+u+=.F.G.H.E.b.)+d.L.M.N.d+{+O.]+^+/+(+i+_+:+l+m+n+[+}+p+|+1+q+w+x+6.P+X+Y+6.6.Z+`+                      ",
"         @W+.@R+S+G+N+,+C+b+c+'+H.c.b.I.J.K.!+M.~+{+e+f+g+/+(+{._+j+k+<+v+n+o+p+B.8.2+q+3+y+;+{+^+6.6.7.t+                      ",
"        +@.@@@V+W+M+N+H+C+u+=.F.G.H.E.I.)+d.L.M.~+d+e+O.]+^+h+(+i+j+:+l+m+v+[+}+B.8.1+q+3+x+6.z+X+7.6.6.=.                      ",
"        #@>+@@.@R+S+G+H+,+u+b+c+'+H.E.b.)+J.K.!+N.~+{+O.f+g+/+(+{._+:+l+<+v+[+o+p+|+8.2+w+3+y+;+X+Z+6.6.$@%@                    ",
"        &@>+K+.@V+W+M+N+,+C+b+=.F.G.c.E.I.J.d.L.M.~+d+e+f+]+^+h+{.i+j+k+l+m+n+[+}+B.8.2+q+3+x+6.[+E.6.6.$@*@                    ",
"        F+=@K+@@V+R+S+G+H+,+u+=.c+'+H.E.I.)+d.K.!+N.d+{+O.]+g+/+(+{._+:+l+m+v+[+o+p+|+1+q+w+x+y+Y+>+7.6.;+=@                    ",
"        A+X+>+K+.@R+W+M+N+,+u+b+c+F.G.c.b.I.J.K.L.M.~+d+e+f+g+/+h+{.i+j+k+<+v+n+o+}+B.8.2+w+3+y+6.>+9+6.6.=.                    ",
"        -@;@=@K+.@V+W+S+G+H+C+u+=.F.'+H.E.I.)+d.L.M.N.d+{+O.]+^+/+(+i+_+:+l+m+n+[+}+p+|+1+q+3+x+6.N._+6.6.x+`+                  ",
"        ].;@X+>+@@.@R+S+M+N+,+u+b+c+'+H.c.b.)+J.K.!+M.~+{+e+f+g+/+(+{._+j+k+<+v+[+o+p+B.8.2+w+3+y+Z+K+6.6.z+`+                  ",
"        *@J+X+=@K+.@V+W+M+N+H+C+b+=.E.)+I.c.d.M.~+d+~+N.d+e+O.]+^+h+{.i+j+:+l+m+n+[+}+B.|+1+q+3+x+D+@@O+6.$@-@                  ",
"        0+J+;@=@>+@@V+R+S+G+N+,+b+>@,@          '@)@!@~@{@K.(+^+g+/+(+{._+:+k+<+v+[+o+p+|+8.2+w+x+y+@@z+6.;+]@                  ",
"        '@J+J+X+=@K+.@R+W+M+H+^@                            /@(@].:+h+{._+j+k+l+m+n+o+}+B.8.1+q+3+x+u+3+6.6.K+                  ",
"        _@X+;@;@=@K+@@V+R+,+:@                                    <@[@k+{._+:+l+<+v+[+o+p+|+1+q+w+x+2+=.6.6.@@                  ",
"          E+J+J+X+>+K+.@N++@                                          }@,+j+j+k+<+m+n+o+p+B.8.2+w+3+Y+.@6.6.>+                  ",
"          |@t+;@;@>+S+0+1@                                                -@<+:+l+m+v+[+}+p+|+1+q+3+D+.@;+;+]@                  ",
"              2@3@4@                                                        ^@m+k+<+v+[+o+p+B.8.2+w+;+.@D+$@[@                  ",
"                                                                              ^.v+l+m+n+o+}+B.|+1+q+y+.@D+}+                    ",
"                                                                                C.n+<+v+[+}+p+|+8.2+6.@@5@:@                    ",
"                                                                                  %@p+m+n+o+p+B.8.1+;+W+^@                      ",
"                                                                                    '@[+v+[+}+p+|+1+O+6@                        ",
"                                                                                      7@=.|+o+p+B.8.H+                          ",
"                                                                                          &@J+<+x+M.                            ",
"                                                                                                                                ",
"                                                                                                                                ",
"                                                                                                                                ",
"                                                                                                                                ",
"                                                                                                                                ",
"                                                                                                                                "};
