<?xml version="1.0" encoding="UTF-8" standalone="no"?>
<!-- Created with Inkscape (http://www.inkscape.org/) -->

<svg
   xmlns:dc="http://purl.org/dc/elements/1.1/"
   xmlns:cc="http://creativecommons.org/ns#"
   xmlns:rdf="http://www.w3.org/1999/02/22-rdf-syntax-ns#"
   xmlns:svg="http://www.w3.org/2000/svg"
   xmlns="http://www.w3.org/2000/svg"
   xmlns:sodipodi="http://sodipodi.sourceforge.net/DTD/sodipodi-0.dtd"
   xmlns:inkscape="http://www.inkscape.org/namespaces/inkscape"
   width="500"
   height="500"
   id="svg2"
   version="1.1"
   inkscape:version="0.48.1 r9760"
   sodipodi:docname="teleporter.svg"
   inkscape:export-filename="/home/william/Dev/wksp/spacegame.gl.gfx/svg/teleporter.png"
   inkscape:export-xdpi="46.080002"
   inkscape:export-ydpi="46.080002">
  <defs
     id="defs4">
    <inkscape:perspective
       sodipodi:type="inkscape:persp3d"
       inkscape:vp_x="0 : 526.18109 : 1"
       inkscape:vp_y="0 : 1000 : 0"
       inkscape:vp_z="744.09448 : 526.18109 : 1"
       inkscape:persp3d-origin="372.04724 : 350.78739 : 1"
       id="perspective10" />
    <inkscape:perspective
       id="perspective3600"
       inkscape:persp3d-origin="0.5 : 0.33333333 : 1"
       inkscape:vp_z="1 : 0.5 : 1"
       inkscape:vp_y="0 : 1000 : 0"
       inkscape:vp_x="0 : 0.5 : 1"
       sodipodi:type="inkscape:persp3d" />
    <inkscape:perspective
       id="perspective3622"
       inkscape:persp3d-origin="0.5 : 0.33333333 : 1"
       inkscape:vp_z="1 : 0.5 : 1"
       inkscape:vp_y="0 : 1000 : 0"
       inkscape:vp_x="0 : 0.5 : 1"
       sodipodi:type="inkscape:persp3d" />
    <inkscape:perspective
       id="perspective3673"
       inkscape:persp3d-origin="0.5 : 0.33333333 : 1"
       inkscape:vp_z="1 : 0.5 : 1"
       inkscape:vp_y="0 : 1000 : 0"
       inkscape:vp_x="0 : 0.5 : 1"
       sodipodi:type="inkscape:persp3d" />
    <inkscape:perspective
       id="perspective3639"
       inkscape:persp3d-origin="0.5 : 0.33333333 : 1"
       inkscape:vp_z="1 : 0.5 : 1"
       inkscape:vp_y="0 : 1000 : 0"
       inkscape:vp_x="0 : 0.5 : 1"
       sodipodi:type="inkscape:persp3d" />
    <clipPath
       clipPathUnits="userSpaceOnUse"
       id="clipPath3800">
      <path
         sodipodi:type="arc"
         style="color:#000000;fill:#00651f;fill-opacity:1;fill-rule:nonzero;stroke:none;stroke-width:70;marker:none;visibility:visible;display:inline;overflow:visible;enable-background:accumulate"
         id="path3802"
         sodipodi:cx="-92.1875"
         sodipodi:cy="326.5625"
         sodipodi:rx="126.5625"
         sodipodi:ry="126.5625"
         d="m 34.375,326.5625 a 126.5625,126.5625 0 1 1 -253.125,0 126.5625,126.5625 0 1 1 253.125,0 z"
         transform="matrix(1.9753086,0,0,1.9753086,432.09877,157.30045)" />
    </clipPath>
  </defs>
  <sodipodi:namedview
     id="base"
     pagecolor="#ffffff"
     bordercolor="#666666"
     borderopacity="1.0"
     inkscape:pageopacity="0.0"
     inkscape:pageshadow="2"
     inkscape:zoom="0.32"
     inkscape:cx="6.8026783"
     inkscape:cy="318.50108"
     inkscape:document-units="px"
     inkscape:current-layer="layer1"
     showgrid="false"
     inkscape:window-width="1680"
     inkscape:window-height="973"
     inkscape:window-x="1152"
     inkscape:window-y="24"
     inkscape:window-maximized="1" />
  <metadata
     id="metadata7">
    <rdf:RDF>
      <cc:Work
         rdf:about="">
        <dc:format>image/svg+xml</dc:format>
        <dc:type
           rdf:resource="http://purl.org/dc/dcmitype/StillImage" />
        <dc:title></dc:title>
      </cc:Work>
    </rdf:RDF>
  </metadata>
  <g
     inkscape:label="Layer 1"
     inkscape:groupmode="layer"
     id="layer1"
     transform="translate(0,-552.36218)">
    <path
       sodipodi:type="arc"
       style="color:#000000;fill:none;stroke:#ff371f;stroke-width:37.82199097;stroke-linecap:round;stroke-linejoin:round;stroke-miterlimit:4;stroke-opacity:1;stroke-dasharray:none;stroke-dashoffset:0;marker:none;visibility:visible;display:inline;overflow:visible;enable-background:accumulate"
       id="path2816"
       sodipodi:cx="263.64981"
       sodipodi:cy="250.49232"
       sodipodi:rx="116.16754"
       sodipodi:ry="116.16754"
       d="m 379.81735,250.49232 c 0,64.15757 -52.00998,116.16755 -116.16754,116.16755 -64.15756,0 -116.16754,-52.00998 -116.16754,-116.16755 0,-64.15756 52.00998,-116.16754 116.16754,-116.16754 64.15756,0 116.16754,52.00998 116.16754,116.16754 z"
       transform="matrix(1.8507752,0,0,1.8507751,-1059.8315,273.13221)" />
    <g
       id="g3656"
       transform="translate(-821.875,-65.625)">
      <g
         id="g3653">
        <rect
           style="color:#000000;fill:#ff371f;fill-opacity:1;stroke:none;stroke-width:70;marker:none;visibility:visible;display:inline;overflow:visible;enable-background:accumulate"
           id="rect3590"
           width="100"
           height="70"
           x="50"
           y="767.36218" />
      </g>
      <rect
         y="767.36218"
         x="350"
         height="70"
         width="100"
         id="rect3590-1"
         style="color:#000000;fill:#ff371f;fill-opacity:1;stroke:none;stroke-width:70;marker:none;visibility:visible;display:inline;overflow:visible;enable-background:accumulate" />
    </g>
    <g
       id="g3661"
       transform="translate(-821.875,-65.625)">
      <rect
         transform="matrix(0,1,-1,0,0,0)"
         y="-285"
         x="602.36218"
         height="70"
         width="100"
         id="rect3590-0"
         style="color:#000000;fill:#ff371f;fill-opacity:1;stroke:none;stroke-width:70;marker:none;visibility:visible;display:inline;overflow:visible;enable-background:accumulate" />
      <rect
         transform="matrix(0,1,-1,0,0,0)"
         y="-285"
         x="902.36218"
         height="70"
         width="100"
         id="rect3590-1-0"
         style="color:#000000;fill:#ff371f;fill-opacity:1;stroke:none;stroke-width:70;marker:none;visibility:visible;display:inline;overflow:visible;enable-background:accumulate" />
    </g>
    <path
       id="path2820-6-3-5"
       style="fill:#ffffff;fill-opacity:1;fill-rule:nonzero;stroke:none;stroke-width:1px;stroke-linecap:butt;stroke-linejoin:miter;stroke-opacity:1"
       d="m 250.58171,806.88552 c -2.01972,1.55232 -3.5063,-3.63923 -3.49675,-4.54956 0.10936,-10.43219 14.36844,-12.1001 21.69507,-9.43736 22.07813,8.02395 23.21403,37.33086 13.2724,54.93294 -20.99513,37.17273 -72.48762,37.08491 -104.26402,15.00164 -55.95197,-38.88427 -53.77043,-119.88514 -14.62537,-169.68659 61.69622,-78.49168 179.54308,-73.29017 251.20355,-12.1433 104.82,89.44138 95.6539,251.46711 7.5557,348.81051 -122.12911,134.9458 -355.029774,110.604 -451.417284,-11.0806 -58.5778,-73.9518 -54.48477,-106.1519 -39.39307,-258.8526 27.39377,120.54959 29.59329,156.9302 97.06616,217.9948 97.343484,88.0981 259.369184,97.2643 348.810594,-7.5557 61.1468,-71.66051 66.3483,-189.50737 -12.14334,-251.20358 -49.80145,-39.14507 -130.80232,-41.32661 -169.68659,14.62536 -22.08326,31.77641 -22.17109,83.26889 15.00164,104.26402 17.60208,9.94164 46.90899,8.80574 54.93294,-13.2724 2.66274,-7.32662 0.99484,-21.5857 -9.43736,-21.69507 -0.91033,-0.01 -6.10188,1.47703 -4.54956,3.49675 m -1.19732,-3.64156 c 2.01972,-1.55232 3.50629,3.63924 3.49675,4.54956 -0.10937,10.4322 -14.36845,12.10011 -21.69507,9.43736 -22.07814,-8.02394 -23.21404,-37.33085 -13.27239,-54.93293 20.99512,-37.17273 72.4876,-37.08491 104.26401,-15.00165 55.95199,38.88427 53.77039,119.88514 14.62537,169.68664 C 275.63155,995.1238 157.78469,989.9223 86.124186,928.7754 -18.695804,839.33408 -9.5296643,677.30839 78.568506,579.96491 139.63307,512.49204 223.54974,482.27617 308.27623,483.8144 c 84.72646,1.53822 141.69136,34.83054 205.99526,94.37404 46.5952,61.83366 77.1511,108.14537 58.8574,270.45971 -22.5966,-87.56982 -33.3433,-155.68021 -100.8162,-216.74477 -97.3435,-88.09817 -259.36916,-97.26431 -348.81054,7.55568 -61.146874,71.6605 -66.348384,189.50736 12.1433,251.20357 49.80145,39.14507 130.80233,41.32657 169.6866,-14.62536 22.08326,-31.77641 22.17109,-83.26889 -15.00164,-104.26402 -17.60209,-9.94164 -46.90899,-8.80574 -54.93294,13.2724 -2.66274,7.32662 -0.99484,21.5857 9.43736,21.69507 0.91032,0.01 6.10188,-1.47703 4.54955,-3.49675"
       sodipodi:nodetypes="csssssssscsssssssccssssssssccsssssssc"
       clip-path="url(#clipPath3800)" />
  </g>
</svg>
