<?xml version="1.0" encoding="UTF-8" standalone="no"?>
<!-- Created with Inkscape (http://www.inkscape.org/) -->

<svg
   xmlns:dc="http://purl.org/dc/elements/1.1/"
   xmlns:cc="http://creativecommons.org/ns#"
   xmlns:rdf="http://www.w3.org/1999/02/22-rdf-syntax-ns#"
   xmlns:svg="http://www.w3.org/2000/svg"
   xmlns="http://www.w3.org/2000/svg"
   xmlns:sodipodi="http://sodipodi.sourceforge.net/DTD/sodipodi-0.dtd"
   xmlns:inkscape="http://www.inkscape.org/namespaces/inkscape"
   width="500"
   height="500"
   id="svg3875"
   version="1.1"
   inkscape:version="0.47 r22583"
   sodipodi:docname="New document 8">
  <defs
     id="defs3877">
    <inkscape:perspective
       sodipodi:type="inkscape:persp3d"
       inkscape:vp_x="0 : 526.18109 : 1"
       inkscape:vp_y="0 : 1000 : 0"
       inkscape:vp_z="744.09448 : 526.18109 : 1"
       inkscape:persp3d-origin="372.04724 : 350.78739 : 1"
       id="perspective3883" />
    <inkscape:perspective
       id="perspective3905"
       inkscape:persp3d-origin="0.5 : 0.33333333 : 1"
       inkscape:vp_z="1 : 0.5 : 1"
       inkscape:vp_y="0 : 1000 : 0"
       inkscape:vp_x="0 : 0.5 : 1"
       sodipodi:type="inkscape:persp3d" />
    <inkscape:perspective
       id="perspective4471"
       inkscape:persp3d-origin="0.5 : 0.33333333 : 1"
       inkscape:vp_z="1 : 0.5 : 1"
       inkscape:vp_y="0 : 1000 : 0"
       inkscape:vp_x="0 : 0.5 : 1"
       sodipodi:type="inkscape:persp3d" />
    <inkscape:perspective
       id="perspective4493"
       inkscape:persp3d-origin="0.5 : 0.33333333 : 1"
       inkscape:vp_z="1 : 0.5 : 1"
       inkscape:vp_y="0 : 1000 : 0"
       inkscape:vp_x="0 : 0.5 : 1"
       sodipodi:type="inkscape:persp3d" />
    <inkscape:perspective
       id="perspective4515"
       inkscape:persp3d-origin="0.5 : 0.33333333 : 1"
       inkscape:vp_z="1 : 0.5 : 1"
       inkscape:vp_y="0 : 1000 : 0"
       inkscape:vp_x="0 : 0.5 : 1"
       sodipodi:type="inkscape:persp3d" />
    <inkscape:perspective
       id="perspective4539"
       inkscape:persp3d-origin="0.5 : 0.33333333 : 1"
       inkscape:vp_z="1 : 0.5 : 1"
       inkscape:vp_y="0 : 1000 : 0"
       inkscape:vp_x="0 : 0.5 : 1"
       sodipodi:type="inkscape:persp3d" />
  </defs>
  <sodipodi:namedview
     id="base"
     pagecolor="#000000"
     bordercolor="#666666"
     borderopacity="1.0"
     inkscape:pageopacity="1"
     inkscape:pageshadow="2"
     inkscape:zoom="0.7"
     inkscape:cx="102.02237"
     inkscape:cy="200.34539"
     inkscape:document-units="px"
     inkscape:current-layer="layer1"
     showgrid="false"
     inkscape:window-width="1024"
     inkscape:window-height="600"
     inkscape:window-x="0"
     inkscape:window-y="0"
     inkscape:window-maximized="1" />
  <metadata
     id="metadata3880">
    <rdf:RDF>
      <cc:Work
         rdf:about="">
        <dc:format>image/svg+xml</dc:format>
        <dc:type
           rdf:resource="http://purl.org/dc/dcmitype/StillImage" />
        <dc:title></dc:title>
      </cc:Work>
    </rdf:RDF>
  </metadata>
  <g
     inkscape:label="Layer 1"
     inkscape:groupmode="layer"
     id="layer1"
     transform="translate(0,-552.36218)">
    <g
       transform="matrix(0.0907118,-0.99587719,0.99587719,0.0907118,-583.31281,1240.4988)"
       id="g3885">
      <path
         transform="translate(0,552.36218)"
         d="m 454.2857,440 c 0,12.62365 -10.23349,22.85714 -22.85714,22.85714 -12.62365,0 -22.85715,-10.23349 -22.85715,-22.85714 0,-12.62365 10.2335,-22.85714 22.85715,-22.85714 12.62365,0 22.85714,10.23349 22.85714,22.85714 z"
         sodipodi:ry="22.857143"
         sodipodi:rx="22.857143"
         sodipodi:cy="440"
         sodipodi:cx="431.42856"
         id="path2816"
         style="color:#000000;fill:#c30000;fill-opacity:1;fill-rule:nonzero;stroke:none;stroke-width:1.5;marker:none;visibility:visible;display:inline;overflow:visible;enable-background:accumulate"
         sodipodi:type="arc" />
      <path
         id="path3590"
         d="m 426.42857,994.50504 c -30,-19.28571 -52.85714,-16.42857 -52.85714,-16.42857"
         style="fill:none;stroke:#c30000;stroke-width:8;stroke-linecap:round;stroke-linejoin:miter;stroke-miterlimit:4;stroke-opacity:1;stroke-dasharray:none" />
      <path
         id="path3590-8"
         d="m 407.90205,938.77565 c 7.5243,34.8615 25.686,49.03066 25.686,49.03066"
         style="fill:none;stroke:#c30000;stroke-width:8;stroke-linecap:round;stroke-linejoin:miter;stroke-miterlimit:4;stroke-opacity:1;stroke-dasharray:none" />
      <path
         transform="translate(-2.8571429,550.21932)"
         d="m 382.85713,428.92856 c 0,3.35316 -2.71827,6.07143 -6.07142,6.07143 -3.35316,0 -6.07143,-2.71827 -6.07143,-6.07143 0,-3.35316 2.71827,-6.07143 6.07143,-6.07143 3.35315,0 6.07142,2.71827 6.07142,6.07143 z"
         sodipodi:ry="6.0714288"
         sodipodi:rx="6.0714288"
         sodipodi:cy="428.92856"
         sodipodi:cx="376.78571"
         id="path3614"
         style="color:#000000;fill:#ffffff;fill-opacity:1;fill-rule:nonzero;stroke:none;stroke-width:8;marker:none;visibility:visible;display:inline;overflow:visible;enable-background:accumulate"
         sodipodi:type="arc" />
      <path
         transform="translate(31.785723,510.57648)"
         d="m 382.85713,428.92856 c 0,3.35316 -2.71827,6.07143 -6.07142,6.07143 -3.35316,0 -6.07143,-2.71827 -6.07143,-6.07143 0,-3.35316 2.71827,-6.07143 6.07143,-6.07143 3.35315,0 6.07142,2.71827 6.07142,6.07143 z"
         sodipodi:ry="6.0714288"
         sodipodi:rx="6.0714288"
         sodipodi:cy="428.92856"
         sodipodi:cx="376.78571"
         id="path3614-3"
         style="color:#000000;fill:#ffffff;fill-opacity:1;fill-rule:nonzero;stroke:none;stroke-width:8;marker:none;visibility:visible;display:inline;overflow:visible;enable-background:accumulate"
         sodipodi:type="arc" />
      <g
         id="g3820">
        <path
           sodipodi:type="arc"
           style="color:#000000;fill:#ffffff;fill-opacity:1;fill-rule:nonzero;stroke:#000000;stroke-width:10.66666889;stroke-linecap:round;stroke-linejoin:round;stroke-miterlimit:4;stroke-opacity:1;stroke-dasharray:none;stroke-dashoffset:0;marker:none;visibility:visible;display:inline;overflow:visible;enable-background:accumulate"
           id="path3816"
           sodipodi:cx="135.7645"
           sodipodi:cy="218.5715"
           sodipodi:rx="33.941124"
           sodipodi:ry="33.941124"
           d="m 169.70562,218.5715 c 0,18.74517 -15.19596,33.94113 -33.94112,33.94113 -18.74517,0 -33.94113,-15.19596 -33.94113,-33.94113 0,-18.74516 15.19596,-33.94112 33.94113,-33.94112 18.74516,0 33.94112,15.19596 33.94112,33.94112 z"
           transform="matrix(0.18749996,0,0,0.18749996,388.90874,949.15463)" />
        <path
           sodipodi:type="arc"
           style="color:#000000;fill:#000000;fill-opacity:1;fill-rule:nonzero;stroke:none;stroke-width:2;marker:none;visibility:visible;display:inline;overflow:visible;enable-background:accumulate"
           id="path3818"
           sodipodi:cx="428.68347"
           sodipodi:cy="435.83005"
           sodipodi:rx="2.2980971"
           sodipodi:ry="2.2980971"
           d="m 430.98157,435.83005 c 0,1.2692 -1.02889,2.29809 -2.2981,2.29809 -1.2692,0 -2.2981,-1.02889 -2.2981,-2.29809 0,-1.26921 1.0289,-2.2981 2.2981,-2.2981 1.26921,0 2.2981,1.02889 2.2981,2.2981 z"
           transform="translate(-15.026,553.95318)" />
      </g>
      <path
         transform="matrix(0.18749996,0,0,0.18749996,401.63666,936.42671)"
         d="m 169.70562,218.5715 c 0,18.74517 -15.19596,33.94113 -33.94112,33.94113 -18.74517,0 -33.94113,-15.19596 -33.94113,-33.94113 0,-18.74516 15.19596,-33.94112 33.94113,-33.94112 18.74516,0 33.94112,15.19596 33.94112,33.94112 z"
         sodipodi:ry="33.941124"
         sodipodi:rx="33.941124"
         sodipodi:cy="218.5715"
         sodipodi:cx="135.7645"
         id="path3816-8"
         style="color:#000000;fill:#ffffff;fill-opacity:1;fill-rule:nonzero;stroke:#000000;stroke-width:10.66666889;stroke-linecap:round;stroke-linejoin:round;stroke-miterlimit:4;stroke-opacity:1;stroke-dasharray:none;stroke-dashoffset:0;marker:none;visibility:visible;display:inline;overflow:visible;enable-background:accumulate"
         sodipodi:type="arc" />
      <path
         transform="translate(-3.0051828,540.87171)"
         d="m 430.98157,435.83005 c 0,1.2692 -1.02889,2.29809 -2.2981,2.29809 -1.2692,0 -2.2981,-1.02889 -2.2981,-2.29809 0,-1.26921 1.0289,-2.2981 2.2981,-2.2981 1.26921,0 2.2981,1.02889 2.2981,2.2981 z"
         sodipodi:ry="2.2980971"
         sodipodi:rx="2.2980971"
         sodipodi:cy="435.83005"
         sodipodi:cx="428.68347"
         id="path3818-2"
         style="color:#000000;fill:#000000;fill-opacity:1;fill-rule:nonzero;stroke:none;stroke-width:2;marker:none;visibility:visible;display:inline;overflow:visible;enable-background:accumulate"
         sodipodi:type="arc" />
    </g>
    <path
       sodipodi:type="arc"
       style="color:#000000;fill:#a80000;fill-opacity:1;fill-rule:nonzero;stroke:none;stroke-width:2;marker:none;visibility:visible;display:inline;overflow:visible;enable-background:accumulate"
       id="path3949"
       sodipodi:cx="159.28572"
       sodipodi:cy="372.14285"
       sodipodi:rx="36.42857"
       sodipodi:ry="36.42857"
       d="m 195.71429,372.14285 a 36.42857,36.42857 0 1 1 -72.85714,0 36.42857,36.42857 0 1 1 72.85714,0 z"
       transform="translate(0,552.36218)" />
    <path
       sodipodi:type="star"
       style="color:#000000;fill:#ffffff;fill-opacity:1;fill-rule:nonzero;stroke:none;stroke-width:2;marker:none;visibility:visible;display:inline;overflow:visible;enable-background:accumulate"
       id="path4461"
       sodipodi:sides="5"
       sodipodi:cx="84.285713"
       sodipodi:cy="171.42857"
       sodipodi:r1="107.24757"
       sodipodi:r2="52.576515"
       sodipodi:arg1="0.78539816"
       sodipodi:arg2="1.4137167"
       inkscape:flatsided="false"
       inkscape:rounded="0"
       inkscape:randomized="0"
       d="m 160.12119,247.26405 -67.610698,-23.90627 -56.914155,43.62907 1.843358,-71.68904 -59.081153,-40.64645 68.749961,-20.4 20.399994,-68.749957 40.646453,59.081157 71.68904,-1.84336 -43.62907,56.91415 23.90627,67.6107 z"
       transform="matrix(0.17753722,0,0,0.17753722,106.48642,824.80607)" />
    <path
       transform="translate(62.142848,383.07647)"
       sodipodi:type="arc"
       style="color:#000000;fill:#0025ea;fill-opacity:1;fill-rule:nonzero;stroke:none;stroke-width:2;marker:none;visibility:visible;display:inline;overflow:visible;enable-background:accumulate"
       id="path3949-2"
       sodipodi:cx="159.28572"
       sodipodi:cy="372.14285"
       sodipodi:rx="36.42857"
       sodipodi:ry="36.42857"
       d="m 195.71429,372.14285 a 36.42857,36.42857 0 1 1 -72.85714,0 36.42857,36.42857 0 1 1 72.85714,0 z" />
    <path
       sodipodi:type="star"
       style="color:#000000;fill:#ffffff;fill-opacity:1;fill-rule:nonzero;stroke:none;stroke-width:2;marker:none;visibility:visible;display:inline;overflow:visible;enable-background:accumulate"
       id="path4461-8"
       sodipodi:sides="5"
       sodipodi:cx="84.285713"
       sodipodi:cy="171.42857"
       sodipodi:r1="107.24757"
       sodipodi:r2="52.576515"
       sodipodi:arg1="0.78539816"
       sodipodi:arg2="1.4137167"
       inkscape:flatsided="false"
       inkscape:rounded="0"
       inkscape:randomized="0"
       d="m 160.12119,247.26405 -67.610698,-23.90627 -56.914155,43.62907 1.843358,-71.68904 -59.081153,-40.64645 68.749961,-20.4 20.399994,-68.749957 40.646453,59.081157 71.68904,-1.84336 -43.62907,56.91415 23.90627,67.6107 z"
       transform="matrix(0.16195415,-0.07273457,0.07273457,0.16195415,226.52611,825.47737)" />
    <path
       sodipodi:type="star"
       style="color:#000000;fill:#ffffff;fill-opacity:1;fill-rule:nonzero;stroke:none;stroke-width:2;marker:none;visibility:visible;display:inline;overflow:visible;enable-background:accumulate"
       id="path4461-8-4"
       sodipodi:sides="5"
       sodipodi:cx="84.285713"
       sodipodi:cy="171.42857"
       sodipodi:r1="107.24757"
       sodipodi:r2="52.576515"
       sodipodi:arg1="0.78539816"
       sodipodi:arg2="1.4137167"
       inkscape:flatsided="false"
       inkscape:rounded="0"
       inkscape:randomized="0"
       d="m 160.12119,247.26405 -67.610698,-23.90627 -56.914155,43.62907 1.843358,-71.68904 -59.081153,-40.64645 68.749961,-20.4 20.399994,-68.749957 40.646453,59.081157 71.68904,-1.84336 -43.62907,56.91415 23.90627,67.6107 z"
       transform="matrix(0.16195415,-0.07273457,0.07273457,0.16195415,324.16974,656.33075)" />
    <rect
       style="color:#000000;fill:#2b9400;fill-opacity:1;fill-rule:nonzero;stroke:none;stroke-width:2;marker:none;visibility:visible;display:inline;overflow:visible;enable-background:accumulate"
       id="rect4529"
       width="25.714285"
       height="124.28571"
       x="142.85715"
       y="45.714287"
       transform="translate(0,552.36218)" />
    <path
       sodipodi:type="star"
       style="color:#000000;fill:#ffffff;fill-opacity:1;fill-rule:nonzero;stroke:none;stroke-width:2;marker:none;visibility:visible;display:inline;overflow:visible;enable-background:accumulate"
       id="path4461-8-4-9"
       sodipodi:sides="5"
       sodipodi:cx="84.285713"
       sodipodi:cy="171.42857"
       sodipodi:r1="107.24757"
       sodipodi:r2="52.576515"
       sodipodi:arg1="0.78539816"
       sodipodi:arg2="1.4137167"
       inkscape:flatsided="false"
       inkscape:rounded="0"
       inkscape:randomized="0"
       d="m 160.12119,247.26405 -67.610698,-23.90627 -56.914155,43.62907 1.843358,-71.68904 -59.081153,-40.64645 68.749961,-20.4 20.399994,-68.749957 40.646453,59.081157 71.68904,-1.84336 -43.62907,56.91415 23.90627,67.6107 z"
       transform="matrix(0.16195415,-0.07273457,0.07273457,0.16195415,197.02689,664.90218)" />
    <path
       style="fill:none;stroke:#969c95;stroke-width:5;stroke-linecap:butt;stroke-linejoin:miter;stroke-opacity:1;stroke-miterlimit:4;stroke-dasharray:none"
       d="M 427.14286,361.42857 C 251.42857,454.28571 142.85714,492.85714 101.42857,455.71429 60,418.57143 44.285714,348.57143 70,335.71429 95.714286,322.85714 114.28571,302.85714 130,300 145.71429,297.14286 245.71429,301.42857 262.85714,290 280,278.57143 361.42857,235.71429 368.57143,208.57143 375.71429,181.42857 375.71429,134.28571 360,114.28571 344.28571,94.285714 308.57143,65.714285 277.14286,68.571428 c -31.42857,2.857143 -75.71429,5.714286 -90,17.142857 C 172.85714,97.142857 170,102.85714 170,102.85714 c 0,0 37.14286,15.71429 60,30 22.85714,14.28572 50,32.85715 55.71429,51.42857 5.71428,18.57143 10,51.42858 10,64.28572 0,12.85714 4.28571,71.42857 -1.42858,90 -5.71428,18.57143 -28.57142,90 -41.42857,112.85714 -12.85714,22.85714 -30,35.71429 -30,35.71429"
       id="path4557"
       transform="translate(0,552.36218)" />
  </g>
</svg>
