/* XPM */
static char * icon_xpm[] = {
"32 32 301 2",
"  	c None",
". 	c #000000",
"+ 	c #071403",
"@ 	c #18480E",
"# 	c #205F12",
"$ 	c #226513",
"% 	c #1B510F",
"& 	c #0E2908",
"* 	c #010400",
"= 	c #0E2C09",
"- 	c #2F8C1B",
"; 	c #3BAE22",
"> 	c #3AA920",
", 	c #39A820",
"' 	c #3AAA20",
") 	c #3BAF21",
"! 	c #37A41F",
"~ 	c #18480D",
"{ 	c #040B02",
"] 	c #020601",
"^ 	c #2A7A19",
"/ 	c #369E20",
"( 	c #379F20",
"_ 	c #379F1F",
": 	c #37A020",
"< 	c #37A120",
"[ 	c #38A21F",
"} 	c #38A320",
"| 	c #39A720",
"1 	c #32921C",
"2 	c #0B2006",
"3 	c #2F891C",
"4 	c #369B20",
"5 	c #359A20",
"6 	c #359B20",
"7 	c #359C20",
"8 	c #369D20",
"9 	c #369F20",
"0 	c #39A921",
"a 	c #0F2B09",
"b 	c #010501",
"c 	c #297519",
"d 	c #349520",
"e 	c #34941F",
"f 	c #349620",
"g 	c #359720",
"h 	c #359820",
"i 	c #359920",
"j 	c #369A20",
"k 	c #369B1F",
"l 	c #369C20",
"m 	c #33941E",
"n 	c #061303",
"o 	c #11300A",
"p 	c #339120",
"q 	c #329020",
"r 	c #329120",
"s 	c #339220",
"t 	c #339320",
"u 	c #339420",
"v 	c #339520",
"w 	c #349720",
"x 	c #349820",
"y 	c #266D17",
"z 	c #2F861F",
"A 	c #318B20",
"B 	c #328C20",
"C 	c #328D20",
"D 	c #328E20",
"E 	c #328F20",
"F 	c #338F20",
"G 	c #339020",
"H 	c #349320",
"I 	c #369A21",
"J 	c #0D2607",
"K 	c #0E280A",
"L 	c #318B21",
"M 	c #30871F",
"N 	c #308720",
"O 	c #308820",
"P 	c #308920",
"Q 	c #318A20",
"R 	c #318C20",
"S 	c #318D20",
"T 	c #226216",
"U 	c #1D5314",
"V 	c #2F8320",
"W 	c #2F8220",
"X 	c #308420",
"Y 	c #308520",
"Z 	c #308620",
"` 	c #318820",
" .	c #318920",
"..	c #328C1F",
"+.	c #2B791B",
"@.	c #236119",
"#.	c #2D7D20",
"$.	c #2D7E20",
"%.	c #2E7F20",
"&.	c #2E8020",
"*.	c #2E8120",
"=.	c #2E8220",
"-.	c #2F8420",
";.	c #2F8520",
">.	c #2F8620",
",.	c #2B7A1C",
"'.	c #030A02",
").	c #24621A",
"!.	c #2C781F",
"~.	c #2D7920",
"{.	c #2D7A20",
"].	c #2D7B20",
"^.	c #2D7C20",
"/.	c #2E7D20",
"(.	c #2E7E20",
"_.	c #2E7E1F",
":.	c #2E801F",
"<.	c #2F8120",
"[.	c #2B781D",
"}.	c #040C02",
"|.	c #205618",
"1.	c #2C7420",
"2.	c #2B7520",
"3.	c #2B7620",
"4.	c #2B7720",
"5.	c #2B7820",
"6.	c #2C7820",
"7.	c #2C7920",
"8.	c #2C7A20",
"9.	c #2A721D",
"0.	c #286E1C",
"a.	c #2D7E1F",
"b.	c #2D7F20",
"c.	c #29701C",
"d.	c #030801",
"e.	c #173E11",
"f.	c #2B7220",
"g.	c #2A7020",
"h.	c #2A7120",
"i.	c #2A7220",
"j.	c #2B7320",
"k.	c #2B7420",
"l.	c #2C7720",
"m.	c #286C1D",
"n.	c #0D2508",
"o.	c #266A1C",
"p.	c #2E7E21",
"q.	c #2D791F",
"r.	c #2D7A1F",
"s.	c #26671B",
"t.	c #000100",
"u.	c #071105",
"v.	c #2A7121",
"w.	c #286D1F",
"x.	c #296D20",
"y.	c #296E20",
"z.	c #296F20",
"A.	c #297020",
"B.	c #2A721F",
"C.	c #2D7921",
"D.	c #071206",
"E.	c #424142",
"F.	c #161316",
"G.	c #0B2507",
"H.	c #226019",
"I.	c #184312",
"J.	c #1F5018",
"K.	c #286920",
"L.	c #286820",
"M.	c #286A20",
"N.	c #296B20",
"O.	c #296C20",
"P.	c #11370C",
"Q.	c #979697",
"R.	c #F0F0F0",
"S.	c #A8A7A8",
"T.	c #1E1E1E",
"U.	c #000C00",
"V.	c #040B03",
"W.	c #071205",
"X.	c #26631F",
"Y.	c #26641F",
"Z.	c #266520",
"`.	c #276520",
" +	c #276620",
".+	c #276720",
"++	c #276820",
"@+	c #276920",
"#+	c #286A1F",
"$+	c #323232",
"%+	c #FFFFFF",
"&+	c #A6A6A6",
"*+	c #2A2A2A",
"=+	c #030303",
"-+	c #153511",
";+	c #276321",
">+	c #26601F",
",+	c #266120",
"'+	c #266220",
")+	c #266320",
"!+	c #276320",
"~+	c #276420",
"{+	c #245E1D",
"]+	c #F3F3F3",
"^+	c #FCFCFC",
"/+	c #D4D4D4",
"(+	c #595959",
"_+	c #183C14",
":+	c #245C20",
"<+	c #245D20",
"[+	c #245E1F",
"}+	c #255E20",
"|+	c #255F20",
"1+	c #256020",
"2+	c #256120",
"3+	c #000E00",
"4+	c #969596",
"5+	c #FEFEFE",
"6+	c #E2E2E2",
"7+	c #575757",
"8+	c #111111",
"9+	c #0D210C",
"0+	c #245820",
"a+	c #255B20",
"b+	c #24591F",
"c+	c #245A20",
"d+	c #245B20",
"e+	c #255C20",
"f+	c #255C1F",
"g+	c #163912",
"h+	c #3B393B",
"i+	c #E7E7E7",
"j+	c #A2A2A2",
"k+	c #1B1B1B",
"l+	c #133112",
"m+	c #1D4A1B",
"n+	c #20501D",
"o+	c #22531E",
"p+	c #22551F",
"q+	c #21531E",
"r+	c #1F4F1C",
"s+	c #193F17",
"t+	c #050F05",
"u+	c #1A1A1A",
"v+	c #ECECEC",
"w+	c #F2F2F2",
"x+	c #D1D1D1",
"y+	c #737373",
"z+	c #000200",
"A+	c #030903",
"B+	c #040C04",
"C+	c #050D05",
"D+	c #040A03",
"E+	c #020501",
"F+	c #020202",
"G+	c #D3D3D3",
"H+	c #616161",
"I+	c #1F1F1F",
"J+	c #8A8A8A",
"K+	c #8D8D8D",
"L+	c #2B2B2B",
"M+	c #FAFAFA",
"N+	c #BFBFBF",
"O+	c #ABABAB",
"P+	c #061203",
"Q+	c #13390B",
"R+	c #267115",
"S+	c #2E8A1A",
"T+	c #2F8B1A",
"U+	c #277315",
"V+	c #153F0B",
"W+	c #071504",
"X+	c #F1F1F1",
"Y+	c #CBCBCB",
"Z+	c #979797",
"`+	c #909090",
" @	c #226412",
".@	c #36A11E",
"+@	c #3BAE20",
"@@	c #3AAC20",
"#@	c #37A41E",
"$@	c #277616",
"%@	c #8F8F8F",
"&@	c #969696",
"*@	c #3BAD20",
"=@	c #39AA1F",
"-@	c #3AAB20",
";@	c #3AAD20",
">@	c #33991C",
",@	c #051103",
"'@	c #383838",
")@	c #999999",
"!@	c #33971C",
"~@	c #0A0A0A",
"{@	c #0B0B0B",
"]@	c #A9A9A9",
"^@	c #37A31E",
"/@	c #061403",
"(@	c #153E0B",
"_@	c #878787",
":@	c #3AAB21",
"                  . . . . .                                     ",
"            . . + @ # $ % & . .                                 ",
"        . * = - ; > , , ' ) ! ~ { .                             ",
"      . ] ^ / ( _ ( : < < [ } | 1 2 .                           ",
"    . ] 3 4 5 5 6 7 7 8 8 / / 9 : 0 a .                         ",
"    b c d e d f f g g h h i 5 j k l m n .                       ",
"  . o p q q r s s t t u v d f w w x 5 y .                       ",
"  . z A A B B C C D E F G p p s s H H I J .                     ",
". K L M N O O P P Q A A R S S D D E E p T .                     ",
". U V W W V V X Y Y Z N N ` `  .Q Q A ..+.b                     ",
". @.#.$.$.%.%.&.*.=.=.V V -.-.;.>.>.N O ,.'.                    ",
". ).!.~.~.{.].].^.#./.(._.%.:.&.<.W W V [.}.                    ",
". |.1.2.3.3.4.5.6.7.7.8.8.9.0.(.#.a.$.b.c.d.                    ",
". e.f.g.h.i.f.j.j.k.k.2.l.m.. n.o.p.q.r.s.t.                    ",
". u.v.w.x.y.y.z.z.A.h.h.B.C.D.E.F.G.H.3.I..                     ",
"  . J.K.L.K.K.M.N.N.O.x.x.g.P.Q.R.S.T.U.V.                      ",
"  . W.X.Y.Z.`. +.+.+++@+K.#+|.$+%+%+%+&+*+=+                    ",
"    . -+;+>+,+,+'+)+!+~+~+`.{+. ]+%+%+%+^+/+(+. .               ",
"      . _+:+<+[+}+|+|+1+1+2+!+3+4+%+%+%+5+5+%+6+7+8+.           ",
"      . . 9+0+a+b+c+c+d+e+f+|+g+h+%+%+%+%+%+5+%+%+i+j+k+.       ",
"          . t.l+m+n+o+p+q+r+s+t+u+v+5+%+%+%+%+%+w+x+y+8+. .     ",
"              . z+A+B+C+D+E+. . F+G+5+%+%+%+]+H+I+F+            ",
"                    . .         . J+%+%+%+%+%+K+.               ",
"    . . . . . .                   L+%+5+M+N+%+%+O+.             ",
". P+Q+R+S+T+U+V+W+.               . X+%+Y+. Z+%+%+`+.           ",
" @.@+@@@@@@@@@+@#@$@. .           . %@%+L+  . &@%+%+O+.         ",
"*@=@-@-@-@-@-@-@=@;@>@,@.           '@)@.     . &@%+%+`+.       ",
"-@-@-@-@-@-@-@-@-@=@@@!@.           ~@{@        . &@%+%+]@.     ",
"-@-@-@-@-@-@-@-@-@-@=@;@U+.         . .           . &@%+%+%@.   ",
"-@-@-@-@-@-@-@-@-@-@-@=@^@/@                        . &@%+%+]@. ",
"-@-@-@-@-@-@-@-@-@-@-@-@+@(@.                         . &@%+%+_@",
":@-@-@-@-@-@-@-@-@-@-@-@@@R+.                           . K+%+%+"};
