<?xml version="1.0" encoding="UTF-8" standalone="no"?>
<!-- Created with Inkscape (http://www.inkscape.org/) -->

<svg
   xmlns:dc="http://purl.org/dc/elements/1.1/"
   xmlns:cc="http://creativecommons.org/ns#"
   xmlns:rdf="http://www.w3.org/1999/02/22-rdf-syntax-ns#"
   xmlns:svg="http://www.w3.org/2000/svg"
   xmlns="http://www.w3.org/2000/svg"
   xmlns:sodipodi="http://sodipodi.sourceforge.net/DTD/sodipodi-0.dtd"
   xmlns:inkscape="http://www.inkscape.org/namespaces/inkscape"
   width="500"
   height="500"
   id="svg2"
   version="1.1"
   inkscape:version="0.48.0 r9654"
   sodipodi:docname="planet6.svg"
   inkscape:export-filename="/home/william/Dev/C/spaceedit/spaceedit/data/planet6.png"
   inkscape:export-xdpi="54"
   inkscape:export-ydpi="54">
  <defs
     id="defs4">
    <inkscape:perspective
       sodipodi:type="inkscape:persp3d"
       inkscape:vp_x="0 : 526.18109 : 1"
       inkscape:vp_y="0 : 1000 : 0"
       inkscape:vp_z="744.09448 : 526.18109 : 1"
       inkscape:persp3d-origin="372.04724 : 350.78739 : 1"
       id="perspective10" />
    <clipPath
       clipPathUnits="userSpaceOnUse"
       id="clipPath3636">
      <path
         sodipodi:type="arc"
         style="color:#000000;fill:#3b4fe3;fill-opacity:1;stroke:none;stroke-width:1;marker:none;visibility:visible;display:inline;overflow:visible;enable-background:accumulate"
         id="path3638"
         sodipodi:cx="0.71428573"
         sodipodi:cy="112.85714"
         sodipodi:rx="109.28571"
         sodipodi:ry="88.571426"
         d="m 110,112.85714 a 109.28571,88.571426 0 1 1 -218.57143,0 109.28571,88.571426 0 1 1 218.57143,0 z"
         transform="matrix(2.2875817,0,0,2.8225807,248.36602,483.81379)" />
    </clipPath>
  </defs>
  <sodipodi:namedview
     id="base"
     pagecolor="#ffffff"
     bordercolor="#666666"
     borderopacity="1.0"
     inkscape:pageopacity="0.0"
     inkscape:pageshadow="2"
     inkscape:zoom="0.49497475"
     inkscape:cx="264.64222"
     inkscape:cy="237.54552"
     inkscape:document-units="px"
     inkscape:current-layer="layer1"
     showgrid="false"
     inkscape:window-width="558"
     inkscape:window-height="472"
     inkscape:window-x="1152"
     inkscape:window-y="24"
     inkscape:window-maximized="0" />
  <metadata
     id="metadata7">
    <rdf:RDF>
      <cc:Work
         rdf:about="">
        <dc:format>image/svg+xml</dc:format>
        <dc:type
           rdf:resource="http://purl.org/dc/dcmitype/StillImage" />
        <dc:title></dc:title>
      </cc:Work>
    </rdf:RDF>
  </metadata>
  <g
     inkscape:label="Layer 1"
     inkscape:groupmode="layer"
     id="layer1"
     transform="translate(0,-552.36218)">
    <g
       id="g3624"
       style="fill:#3b37e3;fill-opacity:1;stroke:#000000;stroke-opacity:1;stroke-width:1.5;stroke-miterlimit:4;stroke-dasharray:none"
       clip-path="url(#clipPath3636)"
       inkscape:export-xdpi="45"
       inkscape:export-ydpi="45">
      <path
         id="path2822"
         d="m 48.079044,719.81511 c 13.51896,8.50528 30.27528,-1.33222 18.17736,22.45612 -12.09793,23.78834 -6.29713,40.7223 -24.296854,22.30287 -17.999726,-18.41942 -2.385795,-31.24005 -21.24929,-23.33208 -18.8634937,7.90797 -34.743867,14.67354 -24.2080357,24.32123 10.535831,9.64769 -5.255728,18.43161 17.8220977,14.38272 23.077827,-4.0489 11.577227,-12.643 29.310511,-0.27863 17.733281,12.36436 37.117471,-6.68895 24.930741,15.08104 -12.18674,21.76999 -13.50677,14.75016 -10.95553,26.77146 2.55124,12.0213 14.75016,13.50677 14.75016,13.50677 l 17.80992,-8.87274 c 0,0 8.50528,-13.51895 4.29095,-17.37803 -4.21433,-3.85907 -6.49912,-9.82531 0.25426,-17.20039 6.753376,-7.37508 11.488406,-14.66135 6.131676,-21.50355 -5.356726,-6.84219 -8.606286,-11.75486 -7.907966,-18.86349 0.69833,-7.10865 1.57428,-10.18058 8.505296,-13.51896 6.931,-3.33837 13.59558,-12.73181 13.59558,-12.73181 l 0.52069,-11.14534 -2.20817,-27.20334 -20.094696,2.90649 c 0,0 -9.92632,-18.77468 -4.22652,-27.11453 5.69979,-8.33985 18.419416,-17.99973 18.419416,-17.99973 l 12.09793,-23.78834 -13.69658,-12.542 L 85.922724,591.7586 20.82695,629.00145 c 0,0 -24.3734777,43.53998 -17.0872047,48.27501 7.2862657,4.73503 37.2306617,41.84032 44.3392987,42.53865 z"
         style="fill:#3b37e3;fill-opacity:1;stroke:#000000;stroke-width:1.5;stroke-linecap:butt;stroke-linejoin:miter;stroke-opacity:1;stroke-miterlimit:4;stroke-dasharray:none" />
      <path
         id="path3598"
         d="m 220.37847,578.46624 c -8.80988,19.53381 -23.84961,11.18366 -14.84639,25.27387 9.00321,14.09021 23.10846,18.25776 12.88934,24.9323 -10.2191,6.67453 -20.88288,31.01392 -20.88288,31.01392 l 25.25882,1.67562 23.71641,7.87539 3.90118,24.01287 -3.39633,11.00536 -3.23309,18.28784 -11.6133,6.98603 -2.31364,9.29967 7.31256,26.17826 25.58536,16.24059 c 0,0 3.57464,9.44789 -7.72716,17.82813 -11.30182,8.38022 -21.68419,7.77227 -10.82706,17.05689 10.85713,9.28464 22.02575,19.96347 22.02575,19.96347 0,0 15.02469,-4.82062 21.07625,2.61009 6.05154,7.43071 7.77227,21.68419 7.77227,21.68419 l -3.54457,16.89363 c 0,0 -18.56926,21.71427 -8.94307,38.59288 9.6262,16.87861 6.68958,23.38987 18.46615,23.68633 11.77657,0.29645 14.87646,1.06767 17.51663,6.33297 2.64016,5.2653 6.21482,14.71319 12.1031,14.86142 5.88829,0.14823 23.99783,-17.07195 23.99783,-17.07195 0,0 0.13318,-19.05905 7.10417,-20.61652 6.971,-1.55746 28.81845,-2.04725 28.81845,-2.04725 0,0 4.0494,18.12458 25.25883,1.67561 21.20943,-16.44896 12.99247,-20.46829 26.47473,-19.08913 13.48227,1.37916 25.57033,3.06982 25.57033,3.06982 0,0 17.04186,-2.34372 27.57247,-7.62405 10.5306,-5.28034 30.67236,-6.85284 30.67236,-6.85284 l 27.57247,-7.62405 8.66165,-13.64553 -22.05583,-46.305 -31.9033,14.44682 -19.84531,-10.20407 -20.7497,11.95487 -17.3684,-12.22125 24.29428,-28.84852 c 0,0 28.06226,14.2234 29.75291,2.13534 1.69066,-12.08806 16.38882,-31.47365 0.88937,-35.32972 -15.49944,-3.85606 -17.1901,8.232 -20.92801,-8.49838 -3.73791,-16.73038 14.23844,-14.89149 -7.31256,-26.17827 -21.551,-11.28678 -16.43392,-8.03866 -25.12565,-20.73467 -8.69172,-12.69602 -4.83564,-28.19546 -4.83564,-28.19546 l -24.33941,-10.66379 -19.20728,5.75509 -20.28998,7.4608 -10.7089,-15.17292 8.80987,-19.53381 c 0,0 28.35872,2.44682 33.77224,-6.08163 5.41354,-8.52845 17.33833,-14.12028 9.89259,-21.2395 -7.44575,-7.11922 -32.0816,-6.00644 -32.0816,-6.00644 l -27.24594,22.18902 -19.02899,26.20835 -35.49297,-8.17185 11.89473,-31.93337 c 0,0 29.27816,-6.54135 28.32864,-23.89471 -0.94952,-17.35337 4.00429,-21.38773 23.83456,-24.35443 19.83027,-2.9667 28.04723,1.05263 39.97202,-4.5392 11.92481,-5.59183 16.86357,-22.79696 16.86357,-22.79696 l -55.84311,-53.39415 -144.87846,0.16541 -11.06336,81.51657 z"
         style="fill:#3b37e3;stroke:#000000;stroke-width:1.5;stroke-linecap:butt;stroke-linejoin:miter;stroke-opacity:1;fill-opacity:1;stroke-miterlimit:4;stroke-dasharray:none" />
      <path
         transform="translate(0,552.36218)"
         id="path3602"
         d="m 147.48227,47.45166 c 24.24366,0 36.36549,-6.060915 28.28427,8.08122 -8.08122,14.142136 -16.16244,20.203051 -16.16244,20.203051 0,0 -36.36549,-14.142135 -18.18274,-16.162441 18.18274,-2.020305 4.04061,-14.142135 6.06091,-12.12183 z"
         style="fill:#3b37e3;stroke:#000000;stroke-width:1.5;stroke-linecap:butt;stroke-linejoin:miter;stroke-opacity:1;fill-opacity:1;stroke-miterlimit:4;stroke-dasharray:none" />
      <path
         id="path3604"
         d="m 151.52288,913.97128 c 5.05077,3.03046 5.05077,5.05076 5.05077,5.05076 l -4.04061,6.566 -9.09138,-1.51523 0,-11.11168 -4.54568,-9.59645 c 0,0 -9.59645,1.01015 -7.57615,6.56599 2.02031,5.55584 -4.54568,0.50508 4.04061,10.6066 8.5863,10.10153 -3.03045,5.55584 10.6066,12.12183 13.63706,6.56599 8.5863,12.62691 20.20306,4.54569 11.61675,-8.08122 16.16244,-14.64721 4.04061,-11.11168 -12.12183,3.53554 -14.64722,7.57615 -11.11168,0.50508 3.53553,-7.07107 5.55584,-8.5863 5.55584,-8.5863 l -2.52538,-4.54568 -10.60661,0.50507 z"
         style="fill:#3b37e3;stroke:#000000;stroke-width:1.5;stroke-linecap:butt;stroke-linejoin:miter;stroke-opacity:1;fill-opacity:1;stroke-miterlimit:4;stroke-dasharray:none" />
      <path
         id="path3606"
         d="m 190.20417,708.9282 c 0,0 -9.40029,9.14186 -23.02157,-4.61334 -13.62129,-13.75519 -12.6356,-11.43011 -8.32219,-18.85433 4.3134,-7.42421 10.34445,-9.76156 12.13283,-5.80186 1.78837,3.9597 3.57676,7.91941 3.57676,7.91941 0,0 10.08603,8.78057 10.91796,6.34324 0.83194,-2.43732 2.38355,-9.12958 2.38355,-9.12958 0,0 4.4964,-6.73377 6.38475,-7.97319 1.88836,-1.23942 13.37226,-3.9135 13.37226,-3.9135 0,0 8.36839,3.6937 10.369,4.27191 2.0006,0.57819 11.97439,7.54114 11.97439,7.54114 0,0 4.33795,6.60926 5.06991,9.37105 0.73195,2.7618 1.43467,9.59553 -0.66591,14.21646 -2.10058,4.62091 -8.70983,8.95886 -8.70983,8.95886 0,0 -10.369,-4.2719 -12.98931,-5.79427 -2.62031,-1.52238 -8.73438,-5.0746 -14.04574,-6.9922 -5.31136,-1.91759 -7.8779,6.52155 -8.42686,4.4502 z"
         style="fill:#3b37e3;stroke:#000000;stroke-width:1.5;stroke-linecap:butt;stroke-linejoin:miter;stroke-opacity:1;fill-opacity:1;stroke-miterlimit:4;stroke-dasharray:none" />
      <path
         id="path3610"
         d="m 75.256364,979.12612 11.61675,-4.54568 1.51523,12.12183 c 0,0 6.56599,1.51523 8.08122,-1.01015 1.51523,-2.52539 2.52538,-8.08122 2.52538,-8.08122 0,0 6.060916,-1.51523 6.060916,0.50507 0,2.02031 -1.01015,6.56599 -1.01015,8.5863 0,2.0203 -5.050766,6.56599 1.51522,3.53553 6.566,-3.03046 9.59645,-5.05076 9.59645,-5.05076 l 8.08122,0.50508 1.51523,9.09137 2.02031,6.06091 7.07107,0.5051 3.53553,5.0507 -4.54569,4.0406 -4.04061,1.0102 -4.04061,4.0406 3.03046,4.5457 2.02031,9.5964 -5.05077,7.0711 -5.55584,0 -3.53553,-2.0203 -8.08122,-11.1117 -5.05076,-5.5558 -10.606606,1.5152 -2.52538,6.0609 c 0,0 -8.58629,3.0305 -10.6066,2.5254 -2.0203,-0.5051 -9.09137,-4.5457 -9.09137,-4.5457 l -3.03046,-6.566 9.09137,-8.0812 -4.54568,-12.62688 -5.05077,-11.11168 5.55584,-7.07107 3.53554,1.01015 z"
         style="fill:#3b37e3;stroke:#000000;stroke-width:1.5;stroke-linecap:butt;stroke-linejoin:miter;stroke-opacity:1;fill-opacity:1;stroke-miterlimit:4;stroke-dasharray:none" />
      <path
         transform="translate(0,552.36218)"
         id="path3612"
         d="m 233.85031,299.9898 0,0 z"
         style="fill:#3b37e3;stroke:#000000;stroke-width:1.5;stroke-linecap:butt;stroke-linejoin:miter;stroke-opacity:1;fill-opacity:1;stroke-miterlimit:4;stroke-dasharray:none" />
      <path
         transform="translate(0,552.36218)"
         id="path3614"
         d="m 8.5862966,252.51263 c 11.1116784,1.01015 11.6167544,2.0203 15.6573644,3.53553 4.04061,1.51523 5.050763,2.02031 8.586297,5.05076 3.535534,3.03046 4.545686,2.02031 7.576144,6.06092 3.030457,4.04061 4.04061,5.55584 5.050763,8.08122 1.010152,2.52538 1.010152,4.04061 1.010152,4.04061 0,0 6.565992,8.08122 10.101526,10.6066 3.535533,2.52538 8.08122,3.53553 8.08122,3.53553 l 6.565991,1.01016 8.081221,-0.50508 11.616754,-2.0203 8.586297,0 3.030454,10.10152 c 0,0 6.06092,3.53553 8.08122,1.51523 2.02031,-2.02031 6.06092,-4.54569 6.06092,-4.54569 l 2.0203,3.03046 -3.53553,7.57615 6.56599,9.09137 2.52538,5.05076 -1.51523,4.04061 -22.72843,1.01015 c 0,0 -9.091371,14.64722 -11.111676,17.1726 -2.020305,2.52538 6.565992,7.57614 6.565992,7.57614 l -6.060916,9.59645 -6.565991,0.50508 -5.050763,-2.52539 c 0,0 2.020305,-5.05076 1.515229,-7.07106 -0.505076,-2.02031 -1.515229,-4.54569 -3.535534,-6.06092 -2.020305,-1.51523 -10.606602,-5.05076 -10.606602,-5.05076 l -7.071068,4.04061 -10.606601,-5.05076 -6.565992,-4.04061 c 0,0 -5.050763,2.52538 -4.545686,4.54568 0.505076,2.02031 -0.505077,3.53554 1.010152,5.55584 1.515229,2.02031 9.091373,3.03046 9.091373,3.03046 l -0.505076,9.59645 -1.515229,3.53553 -5.555839,7.07107 -5.050763,6.06092 -1.515229,7.07106 -75.76144,-77.27667 16.16244,-50.00255 35.8604156,-4.54568 z"
         style="fill:#3b37e3;stroke:#000000;stroke-width:1.5;stroke-linecap:butt;stroke-linejoin:miter;stroke-opacity:1;fill-opacity:1;stroke-miterlimit:4;stroke-dasharray:none" />
      <path
         id="path3620"
         d="m 470.13126,939.75999 c -2.84466,17.8449 -4.82312,21.6466 -6.59789,22.7361 -1.77477,1.0894 -7.88467,3.5464 -11.07868,3.4947 -3.1939,-0.052 -14.55059,0.8826 -19.08622,-5.1012 -4.53562,-5.9837 -8.20804,-15.9471 -8.20804,-15.9471 l 0.9665,-10.3675 c 0,0 4.59047,-7.2737 6.21329,-8.8448 1.62283,-1.5712 6.61428,5.8577 6.61428,5.8577 l -2.84156,7.7813 2.70911,10.2672 5.29853,-1.6714 -0.0228,-8.4666 5.70263,2.9676 3.34594,0.5334 -0.27492,-12.6239 7.9591,1.7262 6.10671,7.6067 4.10566,2.9417 -0.91166,-2.8901 z"
         style="fill:#3b37e3;stroke:#000000;stroke-width:1.5;stroke-linecap:butt;stroke-linejoin:miter;stroke-opacity:1;fill-opacity:1;stroke-miterlimit:4;stroke-dasharray:none" />
      <path
         transform="translate(0,552.36218)"
         id="path3622"
         d="m 204.05081,233.31973 c 18.18275,18.18274 24.24367,48.48732 24.24367,48.48732 l 14.14213,34.34519 18.18275,12.12183 c 0,0 -2.02031,20.20305 -6.06092,34.34518 -4.04061,14.14214 -4.04061,40.40611 -4.04061,40.40611 l 38.3858,14.14213 18.18274,24.24366 -6.06091,22.22336 -2.02031,28.28427 4.04061,36.36549 -111.11678,4.04061 14.14214,-34.34519 4.04061,-22.22335 18.18275,-12.12183 -26.26397,-22.22336 8.08122,-24.24366 -14.14214,-18.18274 -4.04061,-32.32489 -8.08122,-22.22335 -16.16244,0 -14.14213,-14.14214 -12.12183,-18.18274 -2.02031,-28.28427 18.18275,-16.16245 38.38579,-20.20305 8.08122,-14.14213 z"
         style="fill:#3b37e3;stroke:#000000;stroke-width:1.5;stroke-linecap:butt;stroke-linejoin:miter;stroke-opacity:1;fill-opacity:1;stroke-miterlimit:4;stroke-dasharray:none" />
    </g>
  </g>
</svg>
