<?xml version="1.0" encoding="UTF-8" standalone="no"?>
<!-- Created with Inkscape (http://www.inkscape.org/) -->

<svg
   xmlns:dc="http://purl.org/dc/elements/1.1/"
   xmlns:cc="http://creativecommons.org/ns#"
   xmlns:rdf="http://www.w3.org/1999/02/22-rdf-syntax-ns#"
   xmlns:svg="http://www.w3.org/2000/svg"
   xmlns="http://www.w3.org/2000/svg"
   xmlns:xlink="http://www.w3.org/1999/xlink"
   xmlns:sodipodi="http://sodipodi.sourceforge.net/DTD/sodipodi-0.dtd"
   xmlns:inkscape="http://www.inkscape.org/namespaces/inkscape"
   width="50"
   height="50"
   id="svg2"
   version="1.1"
   inkscape:version="0.48.1 r9760"
   sodipodi:docname="star.svg"
   inkscape:export-filename="/home/william/Dev/wksp/spacegame/svg/star.png"
   inkscape:export-xdpi="108"
   inkscape:export-ydpi="108">
  <defs
     id="defs4">
    <linearGradient
       id="linearGradient3923">
      <stop
         style="stop-color:#dca100;stop-opacity:1;"
         offset="0"
         id="stop3925" />
      <stop
         id="stop3931"
         offset="1"
         style="stop-color:#ecd200;stop-opacity:1;" />
    </linearGradient>
    <filter
       inkscape:collect="always"
       id="filter3919"
       x="-0.29280239"
       width="1.5856048"
       y="-0.30756039"
       height="1.6151208">
      <feGaussianBlur
         inkscape:collect="always"
         stdDeviation="6.8428982"
         id="feGaussianBlur3921" />
    </filter>
    <linearGradient
       inkscape:collect="always"
       xlink:href="#linearGradient3923"
       id="linearGradient3929"
       x1="9.0525331"
       y1="49.595417"
       x2="37.057583"
       y2="9.6136694"
       gradientUnits="userSpaceOnUse" />
    <filter
       inkscape:collect="always"
       id="filter4003"
       x="-0.24113139"
       width="1.4822628"
       y="-0.25328503"
       height="1.5065701">
      <feGaussianBlur
         inkscape:collect="always"
         stdDeviation="5.6353281"
         id="feGaussianBlur4005" />
    </filter>
  </defs>
  <sodipodi:namedview
     id="base"
     pagecolor="#ffffff"
     bordercolor="#666666"
     borderopacity="1.0"
     inkscape:pageopacity="0"
     inkscape:pageshadow="2"
     inkscape:zoom="11.2"
     inkscape:cx="11.70861"
     inkscape:cy="25.601719"
     inkscape:document-units="px"
     inkscape:current-layer="layer1"
     showgrid="false"
     inkscape:window-width="1680"
     inkscape:window-height="973"
     inkscape:window-x="1152"
     inkscape:window-y="24"
     inkscape:window-maximized="1" />
  <metadata
     id="metadata7">
    <rdf:RDF>
      <cc:Work
         rdf:about="">
        <dc:format>image/svg+xml</dc:format>
        <dc:type
           rdf:resource="http://purl.org/dc/dcmitype/StillImage" />
        <dc:title></dc:title>
      </cc:Work>
    </rdf:RDF>
  </metadata>
  <g
     inkscape:label="Layer 1"
     inkscape:groupmode="layer"
     id="layer1"
     transform="translate(0,-1002.3622)">
    <path
       sodipodi:type="star"
       style="opacity:0.21000001;fill:#ffffff;fill-opacity:1;fill-rule:nonzero;stroke:none;filter:url(#filter4003)"
       id="path2989-39"
       sodipodi:sides="5"
       sodipodi:cx="24.732143"
       sodipodi:cy="28.214287"
       sodipodi:r1="29.467669"
       sodipodi:r2="14.733833"
       sodipodi:arg1="-1.5707963"
       sodipodi:arg2="-0.9424778"
       inkscape:flatsided="false"
       inkscape:rounded="0.1"
       inkscape:randomized="0"
       d="m 24.732144,-1.2533817 c 1.956846,0 7.077207,16.3975417 8.660329,17.5477467 1.583122,1.150206 18.76039,0.952841 19.365089,2.813912 0.604699,1.861072 -13.408012,11.797943 -14.01271,13.659015 -0.604699,1.861071 4.891074,18.136634 3.307952,19.28684 C 40.469682,53.204337 26.68899,42.94812 24.732143,42.94812 22.775297,42.94812 8.9946037,53.204336 7.4114818,52.054131 5.8283599,50.903926 11.324134,34.628363 10.719435,32.767292 10.114737,30.90622 -3.8979733,20.969347 -3.2932745,19.108276 -2.6885758,17.247204 14.488692,17.444571 16.071813,16.294365 17.654935,15.14416 22.775298,-1.2533817 24.732144,-1.2533817 z"
       transform="matrix(0.66548224,0,0,0.66548224,10.541198,1011.4)"
       inkscape:transform-center-y="-1.8726134" />
    <path
       sodipodi:type="star"
       style="fill:#ffffff;fill-opacity:1;fill-rule:nonzero;stroke:none;filter:url(#filter3919)"
       id="path2989"
       sodipodi:sides="5"
       sodipodi:cx="24.732143"
       sodipodi:cy="28.214287"
       sodipodi:r1="29.467669"
       sodipodi:r2="14.733833"
       sodipodi:arg1="-1.5707963"
       sodipodi:arg2="-0.9424778"
       inkscape:flatsided="false"
       inkscape:rounded="0.1"
       inkscape:randomized="0"
       d="m 24.732144,-1.2533817 c 1.956846,0 7.077207,16.3975417 8.660329,17.5477467 1.583122,1.150206 18.76039,0.952841 19.365089,2.813912 0.604699,1.861072 -13.408012,11.797943 -14.01271,13.659015 -0.604699,1.861071 4.891074,18.136634 3.307952,19.28684 C 40.469682,53.204337 26.68899,42.94812 24.732143,42.94812 22.775297,42.94812 8.9946037,53.204336 7.4114818,52.054131 5.8283599,50.903926 11.324134,34.628363 10.719435,32.767292 10.114737,30.90622 -3.8979733,20.969347 -3.2932745,19.108276 -2.6885758,17.247204 14.488692,17.444571 16.071813,16.294365 17.654935,15.14416 22.775298,-1.2533817 24.732144,-1.2533817 z"
       transform="matrix(0.66548224,0,0,0.66548224,8.5411976,1011.4)"
       inkscape:transform-center-y="-1.8726134" />
    <path
       sodipodi:type="star"
       style="fill:url(#linearGradient3929);fill-opacity:1;fill-rule:nonzero;stroke:#000000;stroke-opacity:1;stroke-width:2.10373758000000022;stroke-miterlimit:4;stroke-dasharray:none"
       id="path2989-3"
       sodipodi:sides="5"
       sodipodi:cx="24.732143"
       sodipodi:cy="28.214287"
       sodipodi:r1="29.467669"
       sodipodi:r2="14.733833"
       sodipodi:arg1="-1.5707963"
       sodipodi:arg2="-0.9424778"
       inkscape:flatsided="false"
       inkscape:rounded="0.1"
       inkscape:randomized="0"
       d="m 24.732144,-1.2533817 c 1.956846,0 7.077207,16.3975417 8.660329,17.5477467 1.583122,1.150206 18.76039,0.952841 19.365089,2.813912 0.604699,1.861072 -13.408012,11.797943 -14.01271,13.659015 -0.604699,1.861071 4.891074,18.136634 3.307952,19.28684 C 40.469682,53.204337 26.68899,42.94812 24.732143,42.94812 22.775297,42.94812 8.9946037,53.204336 7.4114818,52.054131 5.8283599,50.903926 11.324134,34.628363 10.719435,32.767292 10.114737,30.90622 -3.8979733,20.969347 -3.2932745,19.108276 -2.6885758,17.247204 14.488692,17.444571 16.071813,16.294365 17.654935,15.14416 22.775298,-1.2533817 24.732144,-1.2533817 z"
       transform="matrix(0.66548224,0,0,0.66548224,8.5411976,1011.4)"
       inkscape:transform-center-y="-1.8726134" />
  </g>
</svg>
