<?xml version="1.0" encoding="UTF-8" standalone="no"?>
<!-- Created with Inkscape (http://www.inkscape.org/) -->

<svg
   xmlns:dc="http://purl.org/dc/elements/1.1/"
   xmlns:cc="http://creativecommons.org/ns#"
   xmlns:rdf="http://www.w3.org/1999/02/22-rdf-syntax-ns#"
   xmlns:svg="http://www.w3.org/2000/svg"
   xmlns="http://www.w3.org/2000/svg"
   xmlns:sodipodi="http://sodipodi.sourceforge.net/DTD/sodipodi-0.dtd"
   xmlns:inkscape="http://www.inkscape.org/namespaces/inkscape"
   width="1000"
   height="16"
   id="svg3016"
   version="1.1"
   inkscape:version="0.48.0 r9654"
   sodipodi:docname="wall.svg"
   inkscape:export-filename="/home/william/Dev/C/spaceedit/spaceedit/data/wall.png"
   inkscape:export-xdpi="180"
   inkscape:export-ydpi="180">
  <defs
     id="defs3018" />
  <sodipodi:namedview
     id="base"
     pagecolor="#ffffff"
     bordercolor="#666666"
     borderopacity="1.0"
     inkscape:pageopacity="0.0"
     inkscape:pageshadow="2"
     inkscape:zoom="5.6"
     inkscape:cx="987.72459"
     inkscape:cy="-6.3009815"
     inkscape:document-units="px"
     inkscape:current-layer="layer1"
     showgrid="false"
     inkscape:window-width="1024"
     inkscape:window-height="548"
     inkscape:window-x="0"
     inkscape:window-y="24"
     inkscape:window-maximized="1" />
  <metadata
     id="metadata3021">
    <rdf:RDF>
      <cc:Work
         rdf:about="">
        <dc:format>image/svg+xml</dc:format>
        <dc:type
           rdf:resource="http://purl.org/dc/dcmitype/StillImage" />
        <dc:title></dc:title>
      </cc:Work>
    </rdf:RDF>
  </metadata>
  <g
     inkscape:label="Layer 1"
     inkscape:groupmode="layer"
     id="layer1"
     transform="translate(0,-1036.3622)">
    <path
       style="fill:none;stroke:#14641e;stroke-width:1px;stroke-linecap:butt;stroke-linejoin:miter;stroke-opacity:1"
       d="M -0.50507627,13.22208 C 32.829958,6.1510127 33.082496,6.4035508 33.082496,6.4035508 l 17.172593,8.5862962 c 0,0 30.557115,-6.5659911 31.819805,-6.8185292 1.262691,-0.2525382 27.021586,-4.5456865 27.021586,-4.5456865 l 21.97081,8.5862967 22.4759,-7.8286823 16.41498,8.0812203 62.88199,-2.7779194 32.07235,-5.3033009 7.57614,7.3236063 16.66752,-3.7880724 5.55584,4.5456864 19.44543,-6.0609152 10.6066,7.8286822 31.56727,-2.020305 13.63706,-4.0406102 c 0,0 8.5863,-4.2931484 9.59645,-4.5456865 1.01015,-0.2525381 8.33376,6.5659917 8.33376,6.5659917 l 20.70813,0.252538 9.59644,-6.5659916 19.95052,6.3134536 11.61675,5.303301 5.55584,-6.81853 21.97082,5.808377 10.10152,-8.8388346 22.22336,7.8286826 33.58757,-1.262691 5.3033,-2.2728433 8.83884,-4.2931483 8.33376,9.5964496 23.99112,-12.8794454 c 0,0 15.15229,8.8388344 16.41498,8.8388344 1.26269,0 21.97082,-3.7880716 21.97082,-3.7880716 l 11.36421,3.5355336 14.64721,-7.0710676 19.44544,8.8388346 23.23351,-5.5558388 13.38452,4.0406098 28.03173,0.252539 16.92006,-3.7880725 23.48605,-2.2728432 13.63705,3.5355339 7.32361,2.2728428 12.12183,-5.8083767 2.52538,8.3337587 26.26397,-3.7880723 24.24366,-4.7982246 7.57614,9.5964489 30.05204,-6.060915 c 0,0 19.69798,0.7576144 22.22336,0.2525382 2.52538,-0.5050763 18.18274,-6.3134534 18.18274,-6.3134534 l 7.32361,10.3540632 5.05076,-10.8591395 5.3033,6.3134534 12.37437,-1.2626907 4.29315,6.0609148 12.87945,-8.333758 29.7995,5.808377"
       id="path3794"
       inkscape:connector-curvature="0"
       transform="translate(0,1036.3622)" />
    <path
       style="fill:none;stroke:#14641e;stroke-width:1px;stroke-linecap:butt;stroke-linejoin:miter;stroke-opacity:1"
       d="M -4.0406102,4.888322 C 43.436559,6.1510127 43.436559,6.1510127 43.436559,6.1510127 l 5.55584,8.0812203 30.557114,-8.3337585 12.879445,5.3033005 23.486042,-1.2626903 1.76777,4.5456863 10.35407,-13.88959733 20.45558,5.30330083 17.67767,12.6269065 18.43529,-13.637059 7.3236,3.0304576 58.58885,3.2829954 4.29315,-5.8083767 25.25381,10.3540637 26.26397,-11.8692926 20.96067,9.0913726 7.3236,-6.3134531 12.62691,3.0304577 19.44543,-6.0609153 9.09138,9.0913727 27.52665,-4.5456862 13.13199,5.3033012 26.5165,-9.0913733 18.43529,7.0710683 12.37436,-4.2931488 14.14214,-0.2525381 30.55711,1.5152288 19.95052,1.2626907 2.77792,3.2829954 22.47589,-3.0304573 11.86929,-6.5659915 10.60661,7.5761438 18.18274,-1.2626904 5.55584,-5.3033009 3.78807,8.3337583 L 636.90118,2.6154788 676.04459,8.9289322 679.58013,16 727.56237,9.4340084 c 0,0 18.68782,-7.0710678 19.95051,-6.3134534 1.2627,0.7576144 8.83884,8.586297 8.83884,8.586297 l 19.44544,-3.2829961 15.65736,-4.0406102 15.40483,5.8083773 17.42513,-4.2931485 2.52538,8.5862965 71.46829,-10.3540634 7.32361,11.1116784 21.71828,-12.121831 8.08122,8.08122 14.64721,-8.08122 8.5863,5.8083772 10.35406,4.7982248 38.89087,-9.3439113"
       id="path3796"
       inkscape:connector-curvature="0"
       transform="translate(0,1036.3622)" />
    <path
       style="fill:none;stroke:#14641e;stroke-width:1px;stroke-linecap:butt;stroke-linejoin:miter;stroke-opacity:1"
       d="M -2.2728432,15.242386 14.142136,14.232233 27.021581,4.1307076 c 0,0 25.253813,9.3439114 26.516504,9.5964494 1.262691,0.252538 28.536809,-6.5659918 28.536809,-6.5659918 l 22.475896,-1.0101525 13.13198,6.5659913 29.7995,-8.8388346 11.11168,5.0507628 8.5863,-1.0101526 33.33503,1.0101526 2.02031,10.1015258 29.54696,-13.6370597 17.42513,-0.2525382 1.51523,5.5558389 59.34646,-4.5456863 8.08122,6.5659913 28.78935,-2.7779193 15.65736,5.5558393 47.98225,-13.6370596 6.06091,9.5964496 42.93149,-5.0507632 6.81853,5.5558392 15.15228,-8.5862968 30.80966,9.8489868 39.39595,-9.0913724 13.38452,9.3439114 31.8198,-9.8489877 18.18275,10.6066017 30.05204,-6.8185296 11.36421,6.3134536 18.68783,-11.1116782 6.81853,8.0812202 79.29697,-7.3236058 -4.29315,9.0913728 34.85026,1.010153 c 0,0 21.46575,-7.8286826 23.99113,-8.0812207 2.52538,-0.2525382 20.70812,-0.2525382 20.70812,-0.2525382 0,0 11.36422,4.2931483 12.62691,5.0507629 1.26269,0.757614 15.65737,3.030457 17.17259,2.777919 1.51523,-0.252538 28.78935,-8.3337581 30.05204,-8.8388344 1.26269,-0.5050763 8.5863,-0.2525382 8.5863,-0.2525382 l 12.62691,7.5761446 37.1231,-5.8083776 18.94036,8.8388346 5.05077,-11.6167541 15.9099,9.8489871 18.43524,1.262691"
       id="path3798"
       inkscape:connector-curvature="0"
       transform="translate(0,1036.3622)" />
    <path
       style="fill:none;stroke:#14641e;stroke-width:1.01223325999999991px;stroke-linecap:butt;stroke-linejoin:miter;stroke-opacity:1"
       d="m 1029.3282,1040.7658 c -34.15558,7.0711 -34.41433,6.8185 -34.41433,6.8185 l -17.59532,-8.5863 c 0,0 -31.30931,6.566 -32.60309,6.8186 -1.29377,0.2525 -27.68675,4.5456 -27.68675,4.5456 l -22.51165,-8.5863 -23.02917,7.8287 -16.81905,-8.0812 -64.42991,2.7779 -32.86185,5.3033 -7.76263,-7.3236 -17.07781,3.7881 -5.69261,-4.5457 -19.9241,6.0609 -10.86769,-7.8287 -32.34434,2.0203 -13.97275,4.0407 c 0,0 -8.79766,4.2931 -9.83268,4.5456 -1.03501,0.2526 -8.5389,-6.5659 -8.5389,-6.5659 l -21.21789,-0.2526 -9.83266,6.566 -20.44163,-6.3134 -11.90271,-5.3034 -5.6926,6.8186 -22.51166,-5.8084 -10.35018,8.8388 -22.77042,-7.8286 -34.41436,1.2626 -5.43385,2.2729 -9.05642,4.2931 -8.5389,-9.5964 -24.58169,12.8794 c 0,0 -15.52528,-8.8388 -16.81906,-8.8388 -1.29377,0 -22.51165,3.7881 -22.51165,3.7881 l -11.64396,-3.5356 -15.00777,7.0711 -19.92411,-8.8388 -23.80543,5.5558 -13.71399,-4.0406 -28.72177,-0.2525 -17.33657,3.788 -24.06418,2.2729 -13.97274,-3.5356 -7.50389,-2.2728 -12.42023,5.8084 -2.58754,-8.3338 -26.91049,3.7881 -24.84045,4.7982 -7.76263,-9.5964 -30.79181,6.0609 c 0,0 -20.18287,-0.7576 -22.77041,-0.2526 -2.58755,0.5051 -18.63033,6.3135 -18.63033,6.3135 l -7.50389,-10.3541 -5.17509,10.8592 -5.43385,-6.3135 -12.67898,1.2627 -4.39879,-6.0609 -13.1965,8.3338 -30.5331,-5.8084"
       id="path3794-6"
       inkscape:connector-curvature="0" />
    <path
       style="fill:none;stroke:#14641e;stroke-width:1.01223325999999991px;stroke-linecap:butt;stroke-linejoin:miter;stroke-opacity:1"
       d="m 1032.9508,1049.0996 c -48.64587,-1.2627 -48.64587,-1.2627 -48.64587,-1.2627 l -5.69261,-8.0813 -31.30931,8.3338 -13.19649,-5.3033 -24.06418,1.2627 -1.81128,-4.5457 -10.60895,13.8896 -20.95912,-5.3033 -18.11283,-12.6269 -18.88909,13.6371 -7.50388,-3.0305 -60.03108,-3.283 -4.39884,5.8084 -25.87546,-10.3541 -26.91049,11.8693 -21.47664,-9.0914 -7.50388,6.3135 -12.93773,-3.0305 -19.9241,6.0609 -9.31518,-9.0913 -28.20425,4.5457 -13.45525,-5.3033 -27.16923,9.0913 -18.8891,-7.071 -12.67897,4.2931 -14.49026,0.2525 -31.30931,-1.5152 -20.44163,-1.2627 -2.8463,-3.283 -23.02916,3.0305 -12.16147,6.566 -10.8677,-7.5762 -18.63033,1.2627 -5.6926,5.3033 -3.88132,-8.3337 -23.80543,10.1015 -40.10697,-6.3135 -3.62258,-7.071 -49.16337,6.566 c 0,0 -19.14785,7.071 -20.44162,6.3134 -1.29378,-0.7576 -9.05642,-8.5863 -9.05642,-8.5863 l -19.92411,3.283 -16.04278,4.0406 -15.78404,-5.8083 -17.85407,4.2931 -2.58755,-8.5863 -73.22756,10.3541 -7.50389,-11.1117 -22.2529,12.1218 -8.28015,-8.0812 -15.00777,8.0812 -8.79766,-5.8084 -10.60894,-4.7982 -39.84821,9.3439"
       id="path3796-1"
       inkscape:connector-curvature="0" />
    <path
       style="fill:none;stroke:#14641e;stroke-width:1.01223325999999991px;stroke-linecap:butt;stroke-linejoin:miter;stroke-opacity:1"
       d="m 1031.1395,1038.7455 -16.819,1.0101 -13.1965,10.1016 c 0,0 -25.87549,-9.3439 -27.16926,-9.5965 -1.29378,-0.2525 -29.23928,6.566 -29.23928,6.566 l -23.02916,1.0102 -13.45524,-6.566 -30.53305,8.8388 -11.38521,-5.0508 -8.79766,1.0102 -34.15561,-1.0102 -2.07005,-10.1015 -30.27429,13.6371 -17.85407,0.2525 -1.55253,-5.5558 -60.80734,4.5457 -8.28015,-6.566 -29.49803,2.7779 -16.04279,-5.5559 -49.16339,13.6371 -6.2101,-9.5964 -43.9883,5.0507 -6.98638,-5.5558 -15.52527,8.5863 -31.56807,-9.849 -40.36573,9.0914 -13.714,-9.3439 -32.60308,9.8489 -18.63034,-10.6066 -30.7918,6.8186 -11.64396,-6.3135 -19.14785,11.1117 -6.98638,-8.0812 -81.24895,7.3236 4.39883,-9.0914 -35.70814,-1.0101 c 0,0 -21.99416,7.8286 -24.5817,8.0812 -2.58755,0.2525 -21.21788,0.2525 -21.21788,0.2525 0,0 -11.64396,-4.2931 -12.93773,-5.0507 -1.29378,-0.7577 -16.0428,-3.0305 -17.59532,-2.778 -1.55253,0.2526 -29.49803,8.3338 -30.7918,8.8389 -1.29378,0.505 -8.79767,0.2525 -8.79767,0.2525 l -12.93773,-7.5761 -38.03693,5.8083 -19.4066,-8.8388 -5.17512,11.6168 -16.3015,-9.849 -18.8891,-1.2627"
       id="path3798-8"
       inkscape:connector-curvature="0" />
  </g>
</svg>
